<svg width="153" height="141" version="1.1" xmlns="http://www.w3.org/2000/svg" desc="Created with imagetracer.js version 1.2.6" ><path fill="rgb(216,227,222)" stroke="rgb(216,227,222)" stroke-width="1" opacity="1" d="M 93.5 10 L 97.5 15 L 93.5 10 Z " /><path fill="rgb(216,227,222)" stroke="rgb(216,227,222)" stroke-width="1" opacity="1" d="M 72.5 16 L 72 17.5 L 71.5 19 L 71 17.5 L 72.5 16 Z " /><path fill="rgb(216,227,222)" stroke="rgb(216,227,222)" stroke-width="1" opacity="1" d="M 99.5 23 L 100 32.5 L 101.5 34 Q 103.8 33.3 103 35.5 L 102 39.5 L 103 40.5 L 103 54 L 100 54.5 L 100 66.5 L 97 71.5 L 96.5 117 L 96 71.5 L 99 66.5 L 99.5 23 Z " /><path fill="rgb(216,227,222)" stroke="rgb(216,227,222)" stroke-width="1" opacity="1" d="M 62.5 28 L 66 28.5 L 62.5 29 L 62.5 28 Z " /><path fill="rgb(216,227,222)" stroke="rgb(216,227,222)" stroke-width="1" opacity="1" d="M 67.5 29 L 70 30.5 L 68.5 31 L 67.5 29 Z " /><path fill="rgb(216,227,222)" stroke="rgb(216,227,222)" stroke-width="1" opacity="1" d="M 59.5 33 L 60 35.5 L 59 35.5 L 59.5 33 Z " /><path fill="rgb(216,227,222)" stroke="rgb(216,227,222)" stroke-width="1" opacity="1" d="M 128.5 36 L 131 36.5 L 128.5 37 L 128.5 36 Z " /><path fill="rgb(216,227,222)" stroke="rgb(216,227,222)" stroke-width="1" opacity="1" d="M 141.5 43 L 142.5 45 L 141.5 43 Z " /><path fill="rgb(216,227,222)" stroke="rgb(216,227,222)" stroke-width="1" opacity="1" d="M 67.5 48 L 70 48.5 L 67.5 49 L 67.5 48 Z " /><path fill="rgb(216,227,222)" stroke="rgb(216,227,222)" stroke-width="1" opacity="1" d="M 126.5 52 L 128.5 55 L 126.5 52 Z " /><path fill="rgb(216,227,222)" stroke="rgb(216,227,222)" stroke-width="1" opacity="1" d="M 146.5 55 L 147 59.5 L 146 59.5 L 146.5 55 Z " /><path fill="rgb(216,227,222)" stroke="rgb(216,227,222)" stroke-width="1" opacity="1" d="M 128.5 65 L 131 65.5 L 128.5 66 L 128.5 65 Z " /><path fill="rgb(216,227,222)" stroke="rgb(216,227,222)" stroke-width="1" opacity="1" d="M 70.5 67 L 71.5 69 L 70.5 67 Z " /><path fill="rgb(216,227,222)" stroke="rgb(216,227,222)" stroke-width="1" opacity="1" d="M 149.5 67 L 150 69.5 L 149 69.5 L 149.5 67 Z " /><path fill="rgb(216,227,222)" stroke="rgb(216,227,222)" stroke-width="1" opacity="1" d="M 56.5 68 L 55.5 70 L 56.5 68 Z " /><path fill="rgb(216,227,222)" stroke="rgb(216,227,222)" stroke-width="1" opacity="1" d="M 72.5 70 L 74 71.5 L 74 116.5 L 73 116.5 L 73 71.5 L 72.5 70 Z " /><path fill="rgb(216,227,222)" stroke="rgb(216,227,222)" stroke-width="1" opacity="1" d="M 41.5 76 L 40.5 78 L 41.5 76 Z " /><path fill="rgb(216,227,222)" stroke="rgb(216,227,222)" stroke-width="1" opacity="1" d="M 141.5 79 L 142.5 81 L 141.5 79 Z " /><path fill="rgb(216,227,222)" stroke="rgb(216,227,222)" stroke-width="1" opacity="1" d="M 38.5 80 L 37.5 82 L 38.5 80 Z " /><path fill="rgb(216,227,222)" stroke="rgb(216,227,222)" stroke-width="1" opacity="1" d="M 48.5 80 L 47.5 82 L 48.5 80 Z " /><path fill="rgb(216,227,222)" stroke="rgb(216,227,222)" stroke-width="1" opacity="1" d="M 143.5 82 L 144.5 84 L 143.5 82 Z " /><path fill="rgb(216,227,222)" stroke="rgb(216,227,222)" stroke-width="1" opacity="1" d="M 45.5 84 L 44.5 86 L 45.5 84 Z " /><path fill="rgb(216,227,222)" stroke="rgb(216,227,222)" stroke-width="1" opacity="1" d="M 146.5 84 L 147 86.5 L 145 85.5 L 146.5 84 Z " /><path fill="rgb(216,227,222)" stroke="rgb(216,227,222)" stroke-width="1" opacity="1" d="M 34.5 85 L 22.5 98 L 34.5 85 Z " /><path fill="rgb(216,227,222)" stroke="rgb(216,227,222)" stroke-width="1" opacity="1" d="M 41.5 89 L 31.5 100 L 41.5 89 Z " /><path fill="rgb(216,227,222)" stroke="rgb(216,227,222)" stroke-width="1" opacity="1" d="M 134.5 90 L 136 96.5 L 135 96.5 L 134.5 90 Z " /><path fill="rgb(216,227,222)" stroke="rgb(216,227,222)" stroke-width="1" opacity="1" d="M 130.5 91 L 131 94.5 L 130 94.5 L 130.5 91 Z " /><path fill="rgb(216,227,222)" stroke="rgb(216,227,222)" stroke-width="1" opacity="1" d="M 148.5 91 L 149 94.5 L 148 94.5 L 148.5 91 Z " /><path fill="rgb(216,227,222)" stroke="rgb(216,227,222)" stroke-width="1" opacity="1" d="M 146.5 99 L 145.5 101 L 146.5 99 Z " /><path fill="rgb(216,227,222)" stroke="rgb(216,227,222)" stroke-width="1" opacity="1" d="M 18.5 100 L 17.5 102 L 18.5 100 Z " /><path fill="rgb(216,227,222)" stroke="rgb(216,227,222)" stroke-width="1" opacity="1" d="M 27.5 102 L 26.5 104 L 27.5 102 Z " /><path fill="rgb(216,227,222)" stroke="rgb(216,227,222)" stroke-width="1" opacity="1" d="M 14.5 103 L 13.5 105 L 14.5 103 Z " /><path fill="rgb(216,227,222)" stroke="rgb(216,227,222)" stroke-width="1" opacity="1" d="M 23.5 105 L 22.5 107 L 23.5 105 Z " /><path fill="rgb(216,227,222)" stroke="rgb(216,227,222)" stroke-width="1" opacity="1" d="M 10.5 106 L 9.5 108 L 10.5 106 Z " /><path fill="rgb(216,227,222)" stroke="rgb(216,227,222)" stroke-width="1" opacity="1" d="M 5.5 111 L 6 113 L 10 113.5 L 6.5 114 L 5.5 111 Z " /><path fill="rgb(51,42,23)" stroke="rgb(51,42,23)" stroke-width="1" opacity="1" d="M 74 19 L 97.5 19 L 98 23 L 74.5 23 L 74 19 Z " /><path fill="rgb(51,42,23)" stroke="rgb(51,42,23)" stroke-width="1" opacity="1" d="M 68.5 31 L 70 31.5 L 70 48 L 67.5 48 L 63 43.5 L 62 38.5 L 66.5 32 L 68.5 31 Z " /><path fill="rgb(51,42,23)" stroke="rgb(51,42,23)" stroke-width="1" opacity="1" d="M 128.5 66 L 148.5 66 L 149 69.5 L 147.5 71 L 128.5 71 L 127 67.5 L 128.5 66 Z " /><path fill="rgb(51,42,23)" stroke="rgb(51,42,23)" stroke-width="1" opacity="1" d="M 71.5 67 L 97.5 67 L 98 68.5 L 95.5 72 L 74.5 72 L 73 70.5 L 71.5 67 Z " /><path fill="rgb(51,42,23)" stroke="rgb(51,42,23)" stroke-width="1" opacity="1" d="M 74.5 117 L 95.5 117 L 100 118 L 100 132 L 69 132 L 69 118 L 73.5 118 L 74.5 117 Z " /><path fill="rgb(255,255,255)" stroke="rgb(255,255,255)" stroke-width="1" opacity="1" d="M 0 0 L 153 0 L 153 141 L 0 141 L 0 0 Z M 83 7 L 71 18 Q 70 20 73 19 L 73 22 L 70 23 L 70 30 L 63 28 L 60 31 L 58 43 L 52 59 L 37 83 L 20 100 L 5 112 L 7 114 L 15 112 L 32 100 Q 53 79 67 51 Q 66 47 70 49 L 70 68 L 73 72 L 73 117 L 69 117 L 69 132 L 103 132 L 103 131 L 101 131 L 101 117 L 97 117 L 97 72 L 100 67 L 100 55 L 103 54 L 103 51 L 123 51 L 126 52 Q 130 55 131 61 Q 133 66 129 65 Q 126 66 127 71 L 149 71 L 150 70 Q 151 65 147 65 L 147 56 L 143 45 Q 139 38 131 36 L 104 36 L 103 34 L 102 34 L 100 33 L 100 24 L 98 22 Q 97 18 100 19 L 98 15 L 89 7 L 83 7 Z M 136 75 L 130 92 L 131 98 L 138 103 Q 143 104 146 101 L 149 95 L 147 85 L 146 85 L 139 77 Q 140 73 136 75 Z " /><path fill="rgb(41,153,211)" stroke="rgb(41,153,211)" stroke-width="1" opacity="1" d="M 74.5 18 L 98 18.5 L 74.5 19 L 74.5 18 Z " /><path fill="rgb(41,153,211)" stroke="rgb(41,153,211)" stroke-width="1" opacity="1" d="M 73.5 22 L 74.5 23 L 99 23 L 99 67 L 71 67 L 70 30.5 L 71 29.5 L 71 23 L 73.5 22 Z " /><path fill="rgb(41,153,211)" stroke="rgb(41,153,211)" stroke-width="1" opacity="1" d="M 132.5 65 L 146 65.5 L 132.5 66 L 132.5 65 Z " /><path fill="rgb(130,197,223)" stroke="rgb(130,197,223)" stroke-width="1" opacity="1" d="M 83.5 7 Q 89.2 6.3 91.5 9 L 100 17.5 Q 100.8 19.8 98.5 19 L 97.5 18 L 74 18 Q 75 21.8 72.5 23 Q 69.5 22.5 71 29.5 L 70 29.5 Q 68.5 23.5 71.5 22 Q 74.1 22.8 73 19.5 L 72 17.5 L 79.5 9 L 83.5 7 Z " /><path fill="rgb(130,197,223)" stroke="rgb(130,197,223)" stroke-width="1" opacity="1" d="M 61 29 Q 66.4 27.5 68 30.5 Q 68.8 32.8 66.5 32 Q 62.1 34.1 62 40.5 L 67 47.5 L 67 49.5 Q 52.7 80.7 28.5 102 L 13.5 112 L 6 113 Q 5.3 109.2 8.5 108 Q 23.8 98.8 35 85.5 Q 55.1 63.8 61 29 Z " /><path fill="rgb(130,197,223)" stroke="rgb(130,197,223)" stroke-width="1" opacity="1" d="M 102 36 L 127.5 36 L 132.5 37 L 141 42.5 L 145 49.5 L 147 65.5 L 145.5 65 L 132.5 65 L 131.5 66 Q 132.3 55.7 126.5 52 L 124.5 51 L 103 51 Q 103.9 41.8 102 36 Z " /><path fill="rgb(130,197,223)" stroke="rgb(130,197,223)" stroke-width="1" opacity="1" d="M 70.5 49 L 71 66.5 L 70 66.5 L 70.5 49 Z " /><path fill="rgb(130,197,223)" stroke="rgb(130,197,223)" stroke-width="1" opacity="1" d="M 74 72 L 96 72 L 96 117 L 74 117 L 74 72 Z " /><path fill="rgb(130,197,223)" stroke="rgb(130,197,223)" stroke-width="1" opacity="1" d="M 137.5 75 L 147 87.5 L 148 96.5 L 143.5 102 L 139.5 103 L 132 98.5 L 131 89.5 L 137.5 75 Z M 135 90 L 135 97 L 136 97 L 135 90 Z M 137 97 L 138 99 L 140 99 L 137 97 Z " /><path fill="rgb(130,197,223)" stroke="rgb(130,197,223)" stroke-width="1" opacity="1" d="M 69.5 117 L 73 117.5 L 69.5 118 L 69.5 117 Z " /><path fill="rgb(130,197,223)" stroke="rgb(130,197,223)" stroke-width="1" opacity="1" d="M 97.5 117 L 101 118.5 L 101 130.5 L 102.5 131 L 102.5 132 L 100 132 L 100 118.5 L 97.5 118 L 97.5 117 Z " /></svg>