<svg width="367" height="164" version="1.1" xmlns="http://www.w3.org/2000/svg" desc="Created with imagetracer.js version 1.2.6" ><path fill="rgb(231,241,244)" stroke="rgb(231,241,244)" stroke-width="1" opacity="1" d="M 341.5 7 L 342 21.5 L 341 21.5 L 341.5 7 Z " /><path fill="rgb(231,241,244)" stroke="rgb(231,241,244)" stroke-width="1" opacity="1" d="M 92.5 9 L 98.5 16 L 92.5 9 Z " /><path fill="rgb(231,241,244)" stroke="rgb(231,241,244)" stroke-width="1" opacity="1" d="M 77.5 10 L 74.5 14 L 77.5 10 Z " /><path fill="rgb(231,241,244)" stroke="rgb(231,241,244)" stroke-width="1" opacity="1" d="M 99.5 22 L 100 32.5 L 99 32.5 L 99.5 22 Z " /><path fill="rgb(231,241,244)" stroke="rgb(231,241,244)" stroke-width="1" opacity="1" d="M 341.5 27 L 342 47.5 L 341 47.5 L 341.5 27 Z " /><path fill="rgb(231,241,244)" stroke="rgb(231,241,244)" stroke-width="1" opacity="1" d="M 67.5 29 L 70 30.5 L 68.5 31 L 67.5 29 Z " /><path fill="rgb(231,241,244)" stroke="rgb(231,241,244)" stroke-width="1" opacity="1" d="M 136.5 38 L 137.5 40 L 136.5 38 Z " /><path fill="rgb(231,241,244)" stroke="rgb(231,241,244)" stroke-width="1" opacity="1" d="M 261.5 42 L 264.5 46 Q 261.9 46.7 263 44 L 261 44 L 261.5 42 Z " /><path fill="rgb(231,241,244)" stroke="rgb(231,241,244)" stroke-width="1" opacity="1" d="M 175.5 46 L 174.5 48 L 175.5 46 Z " /><path fill="rgb(231,241,244)" stroke="rgb(231,241,244)" stroke-width="1" opacity="1" d="M 300.5 47 L 299.5 49 L 300.5 47 Z " /><path fill="rgb(231,241,244)" stroke="rgb(231,241,244)" stroke-width="1" opacity="1" d="M 189.5 49 L 190.5 51 L 189.5 49 Z " /><path fill="rgb(231,241,244)" stroke="rgb(231,241,244)" stroke-width="1" opacity="1" d="M 227.5 49 L 226.5 51 L 227.5 49 Z " /><path fill="rgb(231,241,244)" stroke="rgb(231,241,244)" stroke-width="1" opacity="1" d="M 126.5 52 L 128.5 55 L 126.5 52 Z " /><path fill="rgb(231,241,244)" stroke="rgb(231,241,244)" stroke-width="1" opacity="1" d="M 99.5 55 L 100 66.5 L 99 66.5 L 99.5 55 Z " /><path fill="rgb(231,241,244)" stroke="rgb(231,241,244)" stroke-width="1" opacity="1" d="M 178.5 56 L 179.5 58 L 178.5 56 Z " /><path fill="rgb(231,241,244)" stroke="rgb(231,241,244)" stroke-width="1" opacity="1" d="M 264.5 56 L 263.5 58 L 264.5 56 Z " /><path fill="rgb(231,241,244)" stroke="rgb(231,241,244)" stroke-width="1" opacity="1" d="M 341.5 60 L 342 68.5 L 341 68.5 L 341.5 60 Z " /><path fill="rgb(231,241,244)" stroke="rgb(231,241,244)" stroke-width="1" opacity="1" d="M 172.5 61 L 174 63.5 L 172 62.5 L 172.5 61 Z " /><path fill="rgb(231,241,244)" stroke="rgb(231,241,244)" stroke-width="1" opacity="1" d="M 239.5 63 L 240.5 65 L 239.5 63 Z " /><path fill="rgb(231,241,244)" stroke="rgb(231,241,244)" stroke-width="1" opacity="1" d="M 178.5 64 L 177.5 66 L 178.5 64 Z " /><path fill="rgb(231,241,244)" stroke="rgb(231,241,244)" stroke-width="1" opacity="1" d="M 188.5 66 L 189.5 68 L 188.5 66 Z " /><path fill="rgb(231,241,244)" stroke="rgb(231,241,244)" stroke-width="1" opacity="1" d="M 341.5 74 L 342 80.5 L 341 80.5 L 341.5 74 Z " /><path fill="rgb(231,241,244)" stroke="rgb(231,241,244)" stroke-width="1" opacity="1" d="M 138.5 75 L 139.5 77 L 138.5 75 Z " /><path fill="rgb(231,241,244)" stroke="rgb(231,241,244)" stroke-width="1" opacity="1" d="M 51.5 76 L 50.5 78 L 51.5 76 Z " /><path fill="rgb(231,241,244)" stroke="rgb(231,241,244)" stroke-width="1" opacity="1" d="M 160.5 76 L 159.5 78 L 160.5 76 Z " /><path fill="rgb(231,241,244)" stroke="rgb(231,241,244)" stroke-width="1" opacity="1" d="M 260.5 80 L 259.5 82 L 260.5 80 Z " /><path fill="rgb(231,241,244)" stroke="rgb(231,241,244)" stroke-width="1" opacity="1" d="M 37.5 81 L 36.5 83 L 37.5 81 Z " /><path fill="rgb(231,241,244)" stroke="rgb(231,241,244)" stroke-width="1" opacity="1" d="M 267.5 82 L 266.5 84 L 267.5 82 Z " /><path fill="rgb(231,241,244)" stroke="rgb(231,241,244)" stroke-width="1" opacity="1" d="M 46.5 83 L 45.5 85 L 46.5 83 Z " /><path fill="rgb(231,241,244)" stroke="rgb(231,241,244)" stroke-width="1" opacity="1" d="M 146.5 83 L 147 86.5 L 146 86.5 L 146.5 83 Z " /><path fill="rgb(231,241,244)" stroke="rgb(231,241,244)" stroke-width="1" opacity="1" d="M 258.5 83 L 256.5 86 L 258.5 83 Z " /><path fill="rgb(231,241,244)" stroke="rgb(231,241,244)" stroke-width="1" opacity="1" d="M 186.5 86 L 185.5 88 L 184 87.5 L 186.5 86 Z " /><path fill="rgb(231,241,244)" stroke="rgb(231,241,244)" stroke-width="1" opacity="1" d="M 278.5 86 L 277.5 88 L 278.5 86 Z " /><path fill="rgb(231,241,244)" stroke="rgb(231,241,244)" stroke-width="1" opacity="1" d="M 32.5 87 L 24.5 96 L 32.5 87 Z " /><path fill="rgb(231,241,244)" stroke="rgb(231,241,244)" stroke-width="1" opacity="1" d="M 42.5 88 L 39.5 92 L 42.5 88 Z " /><path fill="rgb(231,241,244)" stroke="rgb(231,241,244)" stroke-width="1" opacity="1" d="M 262.5 89 L 261.5 91 L 262.5 89 Z " /><path fill="rgb(231,241,244)" stroke="rgb(231,241,244)" stroke-width="1" opacity="1" d="M 134.5 91 L 137 97.5 L 135 96.5 L 134.5 91 Z " /><path fill="rgb(231,241,244)" stroke="rgb(231,241,244)" stroke-width="1" opacity="1" d="M 207.5 91 L 206.5 93 L 207.5 91 Z " /><path fill="rgb(231,241,244)" stroke="rgb(231,241,244)" stroke-width="1" opacity="1" d="M 196.5 94 L 197.5 96 L 196.5 94 Z " /><path fill="rgb(231,241,244)" stroke="rgb(231,241,244)" stroke-width="1" opacity="1" d="M 33.5 97 L 30.5 101 L 33.5 97 Z " /><path fill="rgb(231,241,244)" stroke="rgb(231,241,244)" stroke-width="1" opacity="1" d="M 324.5 97 L 325 101.5 L 324 101.5 L 324.5 97 Z " /><path fill="rgb(231,241,244)" stroke="rgb(231,241,244)" stroke-width="1" opacity="1" d="M 19.5 99 L 18.5 101 L 19.5 99 Z " /><path fill="rgb(231,241,244)" stroke="rgb(231,241,244)" stroke-width="1" opacity="1" d="M 132.5 99 L 133.5 101 L 132.5 99 Z " /><path fill="rgb(231,241,244)" stroke="rgb(231,241,244)" stroke-width="1" opacity="1" d="M 146.5 99 L 144.5 102 L 146.5 99 Z " /><path fill="rgb(231,241,244)" stroke="rgb(231,241,244)" stroke-width="1" opacity="1" d="M 26.5 103 L 25.5 105 L 26.5 103 Z " /><path fill="rgb(231,241,244)" stroke="rgb(231,241,244)" stroke-width="1" opacity="1" d="M 11.5 105 L 10.5 107 L 11.5 105 Z " /><path fill="rgb(231,241,244)" stroke="rgb(231,241,244)" stroke-width="1" opacity="1" d="M 22.5 106 L 21.5 108 L 22.5 106 Z " /><path fill="rgb(231,241,244)" stroke="rgb(231,241,244)" stroke-width="1" opacity="1" d="M 324.5 106 L 325 127.5 L 324 127.5 L 324.5 106 Z " /><path fill="rgb(231,241,244)" stroke="rgb(231,241,244)" stroke-width="1" opacity="1" d="M 7.5 108 L 5.5 111 L 7.5 108 Z " /><path fill="rgb(231,241,244)" stroke="rgb(231,241,244)" stroke-width="1" opacity="1" d="M 111.5 108 L 110.5 110 L 111.5 108 Z " /><path fill="rgb(231,241,244)" stroke="rgb(231,241,244)" stroke-width="1" opacity="1" d="M 282.5 108 L 285 111.5 L 283 112.5 L 283 110.5 L 282.5 108 Z " /><path fill="rgb(231,241,244)" stroke="rgb(231,241,244)" stroke-width="1" opacity="1" d="M 141.5 111 Q 145.5 112.7 144 119 L 142 118.5 L 143 113.5 L 141.5 111 Z " /><path fill="rgb(231,241,244)" stroke="rgb(231,241,244)" stroke-width="1" opacity="1" d="M 173.5 111 L 176 111.5 Q 173.9 114.8 173.5 111 Z " /><path fill="rgb(231,241,244)" stroke="rgb(231,241,244)" stroke-width="1" opacity="1" d="M 213.5 111 L 214.5 113 L 213.5 111 Z " /><path fill="rgb(231,241,244)" stroke="rgb(231,241,244)" stroke-width="1" opacity="1" d="M 230.5 111 L 229.5 113 L 230.5 111 Z " /><path fill="rgb(231,241,244)" stroke="rgb(231,241,244)" stroke-width="1" opacity="1" d="M 248.5 111 L 250.5 112 L 252 111.5 L 249.5 113 L 248.5 111 Z " /><path fill="rgb(231,241,244)" stroke="rgb(231,241,244)" stroke-width="1" opacity="1" d="M 279.5 111 L 280.5 113 L 279.5 111 Z " /><path fill="rgb(231,241,244)" stroke="rgb(231,241,244)" stroke-width="1" opacity="1" d="M 295.5 111 L 296.5 113 L 295.5 111 Z " /><path fill="rgb(231,241,244)" stroke="rgb(231,241,244)" stroke-width="1" opacity="1" d="M 306.5 111 L 309 111.5 Q 306.9 114.8 306.5 111 Z " /><path fill="rgb(231,241,244)" stroke="rgb(231,241,244)" stroke-width="1" opacity="1" d="M 204.5 113 L 205.5 115 L 204.5 113 Z " /><path fill="rgb(231,241,244)" stroke="rgb(231,241,244)" stroke-width="1" opacity="1" d="M 190.5 114 L 189.5 116 L 190.5 114 Z " /><path fill="rgb(231,241,244)" stroke="rgb(231,241,244)" stroke-width="1" opacity="1" d="M 153.5 115 L 153.5 117 L 156 117.5 Q 154 121 152 116.5 L 153.5 115 Z " /><path fill="rgb(231,241,244)" stroke="rgb(231,241,244)" stroke-width="1" opacity="1" d="M 200.5 116 L 201.5 118 L 200.5 116 Z " /><path fill="rgb(231,241,244)" stroke="rgb(231,241,244)" stroke-width="1" opacity="1" d="M 110 117 L 112 117.5 L 110 118.5 L 110 117 Z " /><path fill="rgb(231,241,244)" stroke="rgb(231,241,244)" stroke-width="1" opacity="1" d="M 116.5 117 L 115.5 119 L 116.5 117 Z " /><path fill="rgb(231,241,244)" stroke="rgb(231,241,244)" stroke-width="1" opacity="1" d="M 213.5 117 Q 215.8 116.3 215 118.5 L 213.5 117 Z " /><path fill="rgb(231,241,244)" stroke="rgb(231,241,244)" stroke-width="1" opacity="1" d="M 279.5 117 Q 281.8 116.3 281 118.5 L 279.5 117 Z " /><path fill="rgb(231,241,244)" stroke="rgb(231,241,244)" stroke-width="1" opacity="1" d="M 295.5 117 Q 297.8 116.3 297 118.5 L 295.5 117 Z " /><path fill="rgb(231,241,244)" stroke="rgb(231,241,244)" stroke-width="1" opacity="1" d="M 288.5 119 L 289.5 121 L 288.5 119 Z " /><path fill="rgb(231,241,244)" stroke="rgb(231,241,244)" stroke-width="1" opacity="1" d="M 341.5 129 L 342 131.5 L 341 131.5 L 341.5 129 Z " /><path fill="rgb(231,241,244)" stroke="rgb(231,241,244)" stroke-width="1" opacity="1" d="M 336.5 143 L 335.5 145 L 336.5 143 Z " /><path fill="rgb(231,241,244)" stroke="rgb(231,241,244)" stroke-width="1" opacity="1" d="M 48.5 148 L 169 148.5 L 48.5 149 L 48.5 148 Z " /><path fill="rgb(231,241,244)" stroke="rgb(231,241,244)" stroke-width="1" opacity="1" d="M 173.5 148 L 238 148.5 L 173.5 149 L 173.5 148 Z " /><path fill="rgb(231,241,244)" stroke="rgb(231,241,244)" stroke-width="1" opacity="1" d="M 242.5 148 L 308 148.5 L 242.5 149 L 242.5 148 Z " /><path fill="rgb(231,241,244)" stroke="rgb(231,241,244)" stroke-width="1" opacity="1" d="M 312.5 148 L 327 148.5 L 312.5 149 L 312.5 148 Z " /><path fill="rgb(40,153,212)" stroke="rgb(40,153,212)" stroke-width="1" opacity="1" d="M 74.5 18 L 98 18.5 L 74.5 19 L 74.5 18 Z " /><path fill="rgb(40,153,212)" stroke="rgb(40,153,212)" stroke-width="1" opacity="1" d="M 73.5 22 L 74.5 23 L 99 23 L 99 67 L 71 67 L 70 30.5 L 71 29.5 L 71 23 L 73.5 22 Z " /><path fill="rgb(40,153,212)" stroke="rgb(40,153,212)" stroke-width="1" opacity="1" d="M 331.5 36 L 332 41.5 L 331 41.5 L 331.5 36 Z " /><path fill="rgb(40,153,212)" stroke="rgb(40,153,212)" stroke-width="1" opacity="1" d="M 334.5 36 L 335 40.5 L 334 40.5 L 334.5 36 Z " /><path fill="rgb(40,153,212)" stroke="rgb(40,153,212)" stroke-width="1" opacity="1" d="M 132.5 65 L 146 65.5 L 132.5 66 L 132.5 65 Z " /><path fill="rgb(40,153,212)" stroke="rgb(40,153,212)" stroke-width="1" opacity="1" d="M 172.5 132 L 173 147.5 L 172 147.5 L 172.5 132 Z " /><path fill="rgb(255,255,255)" stroke="rgb(255,255,255)" stroke-width="1" opacity="1" d="M 0 0 L 367 0 L 367 164 L 0 164 L 0 0 Z M 83 7 L 78 10 L 71 18 Q 70 20 73 19 L 73 22 L 70 23 L 70 30 L 63 28 L 59 34 L 58 43 L 54 54 Q 47 71 36 84 Q 23 99 5 111 L 7 114 L 17 111 L 31 101 L 47 84 L 67 51 Q 66 47 70 49 L 70 68 L 73 72 L 73 117 L 69 118 L 69 131 L 69 131 L 48 131 L 48 149 L 169 149 L 170 150 L 174 149 L 238 149 L 239 150 L 243 149 L 308 149 L 309 150 Q 316 148 327 149 L 336 145 Q 341 140 342 132 L 342 107 L 343 106 L 342 98 L 350 93 Q 356 88 359 79 Q 361 63 354 57 L 342 48 L 342 28 L 343 27 L 342 7 L 325 7 L 325 22 L 323 22 Q 322 28 325 28 L 325 48 L 317 52 Q 310 57 307 67 Q 305 82 312 89 L 324 98 L 323 103 L 324 107 L 324 130 L 323 131 L 313 131 L 312 130 L 308 131 L 243 131 L 242 130 L 238 131 L 174 131 L 173 130 L 169 131 L 102 131 L 101 131 L 101 117 L 97 117 L 97 72 L 100 67 L 100 55 L 103 54 L 103 51 L 123 51 L 126 52 Q 130 55 131 62 Q 133 66 129 65 Q 126 66 127 71 L 149 71 L 150 70 L 149 67 Q 150 64 147 65 L 146 51 L 143 45 Q 139 38 131 36 L 104 36 L 103 34 L 100 33 L 100 23 Q 97 23 98 19 L 101 19 L 99 16 L 90 7 L 83 7 Z M 186 34 L 181 35 L 174 39 Q 166 44 164 56 Q 163 64 166 68 L 174 72 L 185 73 L 187 76 L 186 79 L 181 82 L 175 81 L 172 78 L 172 76 L 161 76 L 158 82 L 160 90 L 165 94 L 175 97 Q 186 97 193 91 L 197 86 L 198 86 Q 195 88 196 95 L 198 96 L 221 96 L 223 94 L 225 84 L 219 80 L 226 52 Q 227 49 231 49 L 233 47 L 235 37 L 234 35 L 210 35 L 207 48 L 212 51 L 206 79 L 201 82 L 199 82 L 201 78 Q 203 69 200 66 L 195 61 L 182 59 L 178 56 L 179 51 L 183 49 L 189 49 L 192 54 L 203 54 L 205 52 L 204 42 Q 200 33 186 34 Z M 238 35 L 225 89 Q 223 95 227 96 L 249 96 Q 250 94 255 95 L 262 91 L 263 89 L 266 87 L 264 93 L 265 95 L 267 96 L 289 96 Q 293 91 293 82 L 288 81 L 294 52 Q 295 48 300 49 Q 303 45 303 37 L 302 35 L 280 35 L 277 38 L 275 46 L 276 49 L 280 51 L 275 77 L 273 81 L 268 82 L 269 78 L 269 68 L 267 66 L 272 56 L 273 51 Q 274 44 271 41 L 265 35 L 238 35 Z M 136 75 L 130 92 Q 129 97 132 100 L 137 103 L 145 102 L 149 96 L 147 83 L 146 85 L 140 77 L 136 75 Z M 112 108 L 110 110 L 110 112 L 114 116 L 114 118 L 112 117 Q 109 116 110 119 L 113 120 L 116 119 Q 117 116 119 120 L 122 118 L 124 119 L 124 109 L 122 108 L 122 113 L 119 111 Q 116 117 114 112 Q 111 113 112 110 L 116 110 Q 115 107 112 108 Z M 161 108 L 161 119 L 163 119 L 163 109 L 161 108 Z M 195 108 L 195 119 L 198 118 L 201 120 L 202 118 L 201 118 L 199 118 L 201 117 L 202 115 L 206 118 L 205 118 L 203 118 L 205 120 L 208 118 L 205 114 L 207 113 L 206 111 L 203 113 L 200 111 L 197 113 Q 199 107 195 108 Z M 223 108 L 223 119 L 229 118 L 231 119 L 233 119 Q 235 120 234 113 L 231 111 L 229 114 L 228 114 L 229 112 L 228 110 L 228 108 L 223 108 Z M 244 108 L 244 119 L 247 119 Q 248 121 250 118 L 253 120 L 256 118 L 259 120 Q 262 119 261 114 L 258 111 Q 256 115 254 111 L 251 112 L 249 111 L 246 111 Q 247 107 244 108 Z M 263 108 L 263 119 L 265 119 L 265 109 L 263 108 Z M 281 108 L 281 112 L 280 111 L 276 112 L 274 109 Q 271 108 272 112 L 270 111 L 268 112 L 266 113 L 266 119 L 268 119 L 268 113 L 270 113 L 271 119 L 271 114 L 272 114 Q 271 120 274 119 L 276 119 L 278 120 L 283 119 L 284 113 L 285 119 L 285 117 L 286 117 Q 285 120 288 119 L 290 120 L 289 122 L 286 121 L 286 123 L 291 123 L 292 117 L 294 120 L 296 119 L 299 119 L 299 113 L 301 113 L 301 119 L 303 119 Q 304 116 306 120 L 309 119 L 311 119 Q 313 120 312 118 L 311 118 L 309 118 Q 313 117 312 113 L 309 111 L 307 111 Q 304 112 305 109 Q 302 108 303 112 L 302 111 L 299 112 L 294 111 L 292 115 L 291 112 L 290 112 L 288 111 L 286 115 L 285 109 L 281 108 Z M 135 109 L 135 111 L 136 112 L 134 111 L 131 113 L 128 112 L 128 118 Q 125 117 126 112 L 125 112 Q 123 118 127 120 L 130 119 Q 131 116 133 120 L 135 119 Q 138 120 137 117 L 138 117 Q 137 120 140 119 L 142 119 Q 147 121 145 115 L 147 114 Q 146 120 149 119 Q 150 116 152 120 L 154 119 L 158 120 Q 160 119 159 115 L 156 114 L 159 113 L 155 111 L 155 113 L 152 111 Q 150 115 148 111 L 146 112 L 140 111 L 138 115 L 137 115 Q 139 108 135 109 Z M 170 109 L 170 112 L 168 111 L 166 112 L 164 113 L 164 119 L 166 119 L 166 113 L 168 113 L 169 119 L 170 113 L 170 118 Q 172 122 174 119 L 177 120 L 179 119 L 183 119 L 183 121 Q 182 123 181 121 L 180 123 Q 184 124 185 122 Q 184 118 187 119 Q 186 114 189 113 L 193 114 L 191 114 Q 188 115 189 119 L 192 120 L 194 119 Q 196 113 193 111 L 191 112 L 187 111 L 183 111 L 180 113 L 176 111 L 174 111 Q 171 112 172 109 L 170 109 Z M 212 111 L 209 116 L 212 120 L 214 119 L 217 119 L 217 113 Q 221 112 219 119 L 220 119 Q 221 112 219 111 L 217 112 L 212 111 Z M 236 111 L 236 119 Q 235 114 238 113 L 238 119 L 240 119 L 240 113 L 242 113 L 243 119 L 243 111 L 240 112 L 238 111 L 236 111 Z " /><path fill="rgb(255,255,255)" stroke="rgb(255,255,255)" stroke-width="1" opacity="1" d="M 183.5 41 Q 192.2 39.3 195 43.5 L 193.5 43 Q 190.3 40.7 183.5 42 L 183.5 41 Z " /><path fill="rgb(255,255,255)" stroke="rgb(255,255,255)" stroke-width="1" opacity="1" d="M 215.5 42 L 226 42.5 L 221 44.5 L 220.5 46 L 218.5 43 Q 214.5 43.8 215.5 42 Z " /><path fill="rgb(255,255,255)" stroke="rgb(255,255,255)" stroke-width="1" opacity="1" d="M 243 42 L 245 42.5 L 242 44.5 L 243 42 Z " /><path fill="rgb(255,255,255)" stroke="rgb(255,255,255)" stroke-width="1" opacity="1" d="M 248.5 42 L 252 42.5 L 248.5 43 L 248.5 42 Z " /><path fill="rgb(255,255,255)" stroke="rgb(255,255,255)" stroke-width="1" opacity="1" d="M 257.5 42 L 261 42.5 L 257.5 43 L 257.5 42 Z " /><path fill="rgb(255,255,255)" stroke="rgb(255,255,255)" stroke-width="1" opacity="1" d="M 284.5 42 L 295 42.5 Q 290.4 41.9 289 44.5 L 288.5 46 L 288 43 Q 283.6 44 284.5 42 Z " /><path fill="rgb(255,255,255)" stroke="rgb(255,255,255)" stroke-width="1" opacity="1" d="M 196.5 45 L 197.5 47 L 196.5 45 Z " /><path fill="rgb(255,255,255)" stroke="rgb(255,255,255)" stroke-width="1" opacity="1" d="M 264.5 46 L 266 51.5 L 265 51.5 L 264.5 46 Z " /><path fill="rgb(255,255,255)" stroke="rgb(255,255,255)" stroke-width="1" opacity="1" d="M 250.5 49 L 258 50 Q 258.8 55 255.5 57 L 247 58 Q 245.9 51.3 250.5 49 Z " /><path fill="rgb(255,255,255)" stroke="rgb(255,255,255)" stroke-width="1" opacity="1" d="M 323.5 53 Q 326.1 52.2 325 55.5 L 324 55.5 L 323.5 53 Z " /><path fill="rgb(255,255,255)" stroke="rgb(255,255,255)" stroke-width="1" opacity="1" d="M 344 55 L 351 60.5 L 354 69 L 342 69 L 342 59.5 L 344 55 Z " /><path fill="rgb(255,255,255)" stroke="rgb(255,255,255)" stroke-width="1" opacity="1" d="M 217.5 56 L 218 58.5 L 217 58.5 L 217.5 56 Z " /><path fill="rgb(255,255,255)" stroke="rgb(255,255,255)" stroke-width="1" opacity="1" d="M 318.5 57 Q 320.8 56.3 320 58.5 L 325 64.5 L 325 71 L 313.5 71 L 311.5 72 L 312 70.5 Q 311.9 60.4 318.5 57 Z " /><path fill="rgb(255,255,255)" stroke="rgb(255,255,255)" stroke-width="1" opacity="1" d="M 238.5 61 L 240 66 Q 237.3 64.9 238 67.5 L 237 67.5 L 238.5 61 Z " /><path fill="rgb(255,255,255)" stroke="rgb(255,255,255)" stroke-width="1" opacity="1" d="M 259.5 62 L 259 63.5 L 261 67.5 L 258.5 66 L 251 65.5 L 257.5 64 L 259.5 62 Z " /><path fill="rgb(255,255,255)" stroke="rgb(255,255,255)" stroke-width="1" opacity="1" d="M 174.5 63 L 183 65.5 L 178.5 66 Q 174.5 65.5 174.5 63 Z " /><path fill="rgb(255,255,255)" stroke="rgb(255,255,255)" stroke-width="1" opacity="1" d="M 244.5 65 L 248 65.5 L 244.5 66 L 244.5 65 Z " /><path fill="rgb(255,255,255)" stroke="rgb(255,255,255)" stroke-width="1" opacity="1" d="M 190.5 67 L 194 71.5 L 193 71.5 L 190.5 67 Z " /><path fill="rgb(255,255,255)" stroke="rgb(255,255,255)" stroke-width="1" opacity="1" d="M 262.5 71 L 263 73.5 L 262 73.5 L 262.5 71 Z " /><path fill="rgb(255,255,255)" stroke="rgb(255,255,255)" stroke-width="1" opacity="1" d="M 244.5 72 L 255 73 Q 255.9 78.9 251.5 81 L 242.5 81 L 241 79.5 L 244.5 72 Z " /><path fill="rgb(255,255,255)" stroke="rgb(255,255,255)" stroke-width="1" opacity="1" d="M 351.5 73 L 355 73.5 L 353 81.5 L 347.5 88 Q 345.3 88.8 346 86.5 L 342 81.5 L 342 74 L 350.5 74 L 351.5 73 Z " /><path fill="rgb(255,255,255)" stroke="rgb(255,255,255)" stroke-width="1" opacity="1" d="M 281.5 75 L 282 77.5 L 281 77.5 L 281.5 75 Z " /><path fill="rgb(255,255,255)" stroke="rgb(255,255,255)" stroke-width="1" opacity="1" d="M 324.5 75 L 325 83.5 L 322 90 L 315 84.5 L 312 76 L 323.5 76 L 324.5 75 Z " /><path fill="rgb(255,255,255)" stroke="rgb(255,255,255)" stroke-width="1" opacity="1" d="M 211.5 83 L 212 88 L 217 88.5 L 203.5 89 L 203.5 88 Q 209.8 89.3 211 85.5 L 211.5 83 Z " /><path fill="rgb(255,255,255)" stroke="rgb(255,255,255)" stroke-width="1" opacity="1" d="M 233.5 84 L 235.5 88 L 250 88.5 L 234.5 89 Q 231.8 87.8 233.5 84 Z " /><path fill="rgb(255,255,255)" stroke="rgb(255,255,255)" stroke-width="1" opacity="1" d="M 279.5 84 L 280 88 L 285 88.5 L 272.5 89 L 272.5 88 Q 277.8 89.3 279 86.5 L 279.5 84 Z " /><path fill="rgb(255,255,255)" stroke="rgb(255,255,255)" stroke-width="1" opacity="1" d="M 167.5 85 Q 171.4 89.6 180 89.5 L 174.5 90 Q 168.5 88.9 167.5 85 Z " /><path fill="rgb(255,255,255)" stroke="rgb(255,255,255)" stroke-width="1" opacity="1" d="M 225 110 Q 227.7 108.9 227 111.5 L 225 112.5 L 225 110 Z " /><path fill="rgb(255,255,255)" stroke="rgb(255,255,255)" stroke-width="1" opacity="1" d="M 118 113 L 120 113 L 120 118 L 118 118 L 118 113 Z " /><path fill="rgb(255,255,255)" stroke="rgb(255,255,255)" stroke-width="1" opacity="1" d="M 132 113 Q 136.5 111.3 135 116.5 L 132 118 L 132 113 Z " /><path fill="rgb(255,255,255)" stroke="rgb(255,255,255)" stroke-width="1" opacity="1" d="M 140.5 113 L 141 117.5 L 139 116.5 L 140.5 113 Z " /><path fill="rgb(255,255,255)" stroke="rgb(255,255,255)" stroke-width="1" opacity="1" d="M 172 113 L 174 113 L 174 118 L 172 118 L 172 113 Z " /><path fill="rgb(255,255,255)" stroke="rgb(255,255,255)" stroke-width="1" opacity="1" d="M 181 113 L 183 113 L 183 118 L 181 118 L 181 113 Z " /><path fill="rgb(255,255,255)" stroke="rgb(255,255,255)" stroke-width="1" opacity="1" d="M 199 113 L 201 113.5 L 199 114.5 L 199 113 Z " /><path fill="rgb(255,255,255)" stroke="rgb(255,255,255)" stroke-width="1" opacity="1" d="M 212.5 113 L 213 115 L 211 114.5 L 212.5 113 Z " /><path fill="rgb(255,255,255)" stroke="rgb(255,255,255)" stroke-width="1" opacity="1" d="M 231.5 113 L 233 116.5 L 231 117.5 L 230 115.5 L 231.5 113 Z " /><path fill="rgb(255,255,255)" stroke="rgb(255,255,255)" stroke-width="1" opacity="1" d="M 246 113 L 248 113 L 248 118 L 246 118 L 246 113 Z " /><path fill="rgb(255,255,255)" stroke="rgb(255,255,255)" stroke-width="1" opacity="1" d="M 257 113 L 259 113 L 259 118 L 257 118 L 257 113 Z " /><path fill="rgb(255,255,255)" stroke="rgb(255,255,255)" stroke-width="1" opacity="1" d="M 274 113 Q 276.7 111.9 276 114.5 L 275 116.5 L 275.5 118 L 274 118 L 274 113 Z " /><path fill="rgb(255,255,255)" stroke="rgb(255,255,255)" stroke-width="1" opacity="1" d="M 278.5 113 L 279 115 L 277 114.5 L 278.5 113 Z " /><path fill="rgb(255,255,255)" stroke="rgb(255,255,255)" stroke-width="1" opacity="1" d="M 288.5 113 L 290 116.5 Q 288.5 119.5 287 116.5 L 288.5 113 Z " /><path fill="rgb(255,255,255)" stroke="rgb(255,255,255)" stroke-width="1" opacity="1" d="M 294.5 113 L 295 115 L 293 114.5 L 294.5 113 Z " /><path fill="rgb(255,255,255)" stroke="rgb(255,255,255)" stroke-width="1" opacity="1" d="M 305 113 L 307 113 L 307 118 L 305 118 L 305 113 Z " /><path fill="rgb(255,255,255)" stroke="rgb(255,255,255)" stroke-width="1" opacity="1" d="M 154.5 114 L 155 116 Q 157.7 114.9 157 117.5 L 155.5 117 L 151.5 118 L 151.5 117 L 154 115.5 L 154.5 114 Z " /><path fill="rgb(255,255,255)" stroke="rgb(255,255,255)" stroke-width="1" opacity="1" d="M 225.5 114 L 227 116.5 L 225 117.5 L 225.5 114 Z " /><path fill="rgb(255,255,255)" stroke="rgb(255,255,255)" stroke-width="1" opacity="1" d="M 178.5 115 L 179 116.5 L 176.5 118 L 178.5 115 Z " /><path fill="rgb(255,255,255)" stroke="rgb(255,255,255)" stroke-width="1" opacity="1" d="M 214.5 115 L 215 117 L 212.5 118 L 214.5 115 Z " /><path fill="rgb(255,255,255)" stroke="rgb(255,255,255)" stroke-width="1" opacity="1" d="M 254.5 115 L 255 116.5 L 252.5 118 L 254.5 115 Z " /><path fill="rgb(255,255,255)" stroke="rgb(255,255,255)" stroke-width="1" opacity="1" d="M 280.5 115 L 281 117 L 278.5 118 L 280.5 115 Z " /><path fill="rgb(255,255,255)" stroke="rgb(255,255,255)" stroke-width="1" opacity="1" d="M 296.5 115 L 297 117 L 294.5 118 L 296.5 115 Z " /><path fill="rgb(255,255,255)" stroke="rgb(255,255,255)" stroke-width="1" opacity="1" d="M 191 116 L 193 116.5 L 191 117.5 L 191 116 Z " /><path fill="rgb(146,132,94)" stroke="rgb(146,132,94)" stroke-width="1" opacity="1" d="M 73.5 19 L 74 21.5 L 73 21.5 L 73.5 19 Z " /><path fill="rgb(146,132,94)" stroke="rgb(146,132,94)" stroke-width="1" opacity="1" d="M 323.5 22 L 343 22.5 L 323.5 23 L 323.5 22 Z " /><path fill="rgb(146,132,94)" stroke="rgb(146,132,94)" stroke-width="1" opacity="1" d="M 323.5 26 L 343 26.5 L 323.5 27 L 323.5 26 Z " /><path fill="rgb(146,132,94)" stroke="rgb(146,132,94)" stroke-width="1" opacity="1" d="M 67.5 31 L 70 31.5 L 70 48 Q 64.4 49 63 44.5 L 62 36.5 L 65.5 32 L 67.5 31 Z " /><path fill="rgb(146,132,94)" stroke="rgb(146,132,94)" stroke-width="1" opacity="1" d="M 99 34 L 103 35.5 L 102 36.5 L 102 46.5 L 103 53 L 99 54 L 99 34 Z " /><path fill="rgb(146,132,94)" stroke="rgb(146,132,94)" stroke-width="1" opacity="1" d="M 186.5 34 L 192 34.5 L 186.5 35 L 186.5 34 Z " /><path fill="rgb(146,132,94)" stroke="rgb(146,132,94)" stroke-width="1" opacity="1" d="M 211.5 35 L 222 35.5 L 211.5 36 L 211.5 35 Z " /><path fill="rgb(146,132,94)" stroke="rgb(146,132,94)" stroke-width="1" opacity="1" d="M 223.5 35 L 233 35.5 L 223.5 36 L 223.5 35 Z " /><path fill="rgb(146,132,94)" stroke="rgb(146,132,94)" stroke-width="1" opacity="1" d="M 242.5 35 L 249 35.5 L 242.5 36 L 242.5 35 Z " /><path fill="rgb(146,132,94)" stroke="rgb(146,132,94)" stroke-width="1" opacity="1" d="M 258.5 35 L 263 35.5 L 258.5 36 L 258.5 35 Z " /><path fill="rgb(146,132,94)" stroke="rgb(146,132,94)" stroke-width="1" opacity="1" d="M 280.5 35 L 290 35.5 L 280.5 36 L 280.5 35 Z " /><path fill="rgb(146,132,94)" stroke="rgb(146,132,94)" stroke-width="1" opacity="1" d="M 292.5 35 L 301 35.5 L 292.5 36 L 292.5 35 Z " /><path fill="rgb(146,132,94)" stroke="rgb(146,132,94)" stroke-width="1" opacity="1" d="M 292.5 37 L 294 37.5 L 291.5 39 L 292.5 37 Z " /><path fill="rgb(146,132,94)" stroke="rgb(146,132,94)" stroke-width="1" opacity="1" d="M 283.5 38 L 285 38.5 L 282.5 40 L 283.5 38 Z " /><path fill="rgb(146,132,94)" stroke="rgb(146,132,94)" stroke-width="1" opacity="1" d="M 184.5 40 L 191 40.5 L 184.5 41 L 184.5 40 Z " /><path fill="rgb(146,132,94)" stroke="rgb(146,132,94)" stroke-width="1" opacity="1" d="M 174.5 41 L 174 42.5 L 173.5 46 L 173 42.5 L 174.5 41 Z " /><path fill="rgb(146,132,94)" stroke="rgb(146,132,94)" stroke-width="1" opacity="1" d="M 224.5 41 Q 228.9 39.5 228 42.5 L 226.5 42 Q 223.5 42.5 224.5 41 Z " /><path fill="rgb(146,132,94)" stroke="rgb(146,132,94)" stroke-width="1" opacity="1" d="M 283.5 41 L 282.5 43 L 283.5 41 Z " /><path fill="rgb(146,132,94)" stroke="rgb(146,132,94)" stroke-width="1" opacity="1" d="M 292.5 41 L 296 41.5 L 292.5 42 L 292.5 41 Z " /><path fill="rgb(146,132,94)" stroke="rgb(146,132,94)" stroke-width="1" opacity="1" d="M 183.5 42 L 188 42.5 L 183.5 43 L 183.5 42 Z " /><path fill="rgb(146,132,94)" stroke="rgb(146,132,94)" stroke-width="1" opacity="1" d="M 176.5 44 Q 179.5 45.5 176.5 47 Q 173.5 45.5 176.5 44 Z " /><path fill="rgb(146,132,94)" stroke="rgb(146,132,94)" stroke-width="1" opacity="1" d="M 194.5 44 L 195.5 46 L 194.5 44 Z " /><path fill="rgb(146,132,94)" stroke="rgb(146,132,94)" stroke-width="1" opacity="1" d="M 287.5 44 L 289 49.5 L 288 49.5 L 287.5 44 Z " /><path fill="rgb(146,132,94)" stroke="rgb(146,132,94)" stroke-width="1" opacity="1" d="M 173.5 47 L 174.5 49 L 173.5 47 Z " /><path fill="rgb(146,132,94)" stroke="rgb(146,132,94)" stroke-width="1" opacity="1" d="M 204.5 47 L 205 50.5 L 204 50.5 L 204.5 47 Z " /><path fill="rgb(146,132,94)" stroke="rgb(146,132,94)" stroke-width="1" opacity="1" d="M 328.5 47 Q 348.1 46.4 355 58.5 L 359 69.5 L 359 75.5 Q 357 87.5 348.5 93 L 337.5 98 L 328.5 98 Q 316.6 95.4 311 86.5 L 307 75.5 L 307 69.5 Q 309.3 56.8 318.5 51 L 328.5 47 Z M 329 51 L 323 54 L 329 64 Q 330 66 334 65 L 340 52 Q 337 50 329 51 Z M 345 54 L 338 67 L 340 70 L 355 69 L 351 60 L 345 54 Z M 319 56 Q 311 61 311 72 L 326 71 L 327 68 L 320 58 Q 321 55 319 56 Z M 345 73 L 340 74 L 339 78 L 346 88 Q 345 90 348 89 Q 353 85 355 77 L 355 73 L 345 73 Z M 318 75 L 311 77 L 315 86 L 322 91 L 327 80 Q 330 78 326 77 L 326 75 L 318 75 Z M 333 80 L 326 93 L 329 94 Q 338 95 343 92 L 337 82 Q 336 79 333 80 Z " /><path fill="rgb(146,132,94)" stroke="rgb(146,132,94)" stroke-width="1" opacity="1" d="M 218.5 49 L 220 52.5 L 219 52.5 L 218.5 49 Z " /><path fill="rgb(146,132,94)" stroke="rgb(146,132,94)" stroke-width="1" opacity="1" d="M 264.5 49 L 265 52.5 L 264 52.5 L 264.5 49 Z " /><path fill="rgb(146,132,94)" stroke="rgb(146,132,94)" stroke-width="1" opacity="1" d="M 179.5 50 L 178.5 52 L 179.5 50 Z " /><path fill="rgb(146,132,94)" stroke="rgb(146,132,94)" stroke-width="1" opacity="1" d="M 234.5 50 L 235 52.5 L 234 52.5 L 234.5 50 Z " /><path fill="rgb(146,132,94)" stroke="rgb(146,132,94)" stroke-width="1" opacity="1" d="M 280.5 50 L 281 52.5 L 280 52.5 L 280.5 50 Z " /><path fill="rgb(146,132,94)" stroke="rgb(146,132,94)" stroke-width="1" opacity="1" d="M 171.5 51 L 173 53.5 L 172 53.5 L 171.5 51 Z " /><path fill="rgb(146,132,94)" stroke="rgb(146,132,94)" stroke-width="1" opacity="1" d="M 176.5 52 L 176.5 54 Q 178.8 53.3 178 55.5 L 175 53.5 L 176.5 52 Z " /><path fill="rgb(146,132,94)" stroke="rgb(146,132,94)" stroke-width="1" opacity="1" d="M 203.5 52 L 202.5 54 L 203.5 52 Z " /><path fill="rgb(146,132,94)" stroke="rgb(146,132,94)" stroke-width="1" opacity="1" d="M 195.5 53 L 200 53.5 L 195.5 54 L 195.5 53 Z " /><path fill="rgb(146,132,94)" stroke="rgb(146,132,94)" stroke-width="1" opacity="1" d="M 239.5 53 L 241 57.5 L 240 57.5 L 239.5 53 Z " /><path fill="rgb(146,132,94)" stroke="rgb(146,132,94)" stroke-width="1" opacity="1" d="M 246.5 53 L 247 57.5 L 246 57.5 L 246.5 53 Z " /><path fill="rgb(146,132,94)" stroke="rgb(146,132,94)" stroke-width="1" opacity="1" d="M 170.5 54 L 171 56.5 L 170 56.5 L 170.5 54 Z " /><path fill="rgb(146,132,94)" stroke="rgb(146,132,94)" stroke-width="1" opacity="1" d="M 164.5 57 L 165 60.5 L 164 60.5 L 164.5 57 Z " /><path fill="rgb(146,132,94)" stroke="rgb(146,132,94)" stroke-width="1" opacity="1" d="M 248.5 58 L 253 58.5 L 248.5 59 L 248.5 58 Z " /><path fill="rgb(146,132,94)" stroke="rgb(146,132,94)" stroke-width="1" opacity="1" d="M 261.5 59 L 262.5 61 L 261.5 59 Z " /><path fill="rgb(146,132,94)" stroke="rgb(146,132,94)" stroke-width="1" opacity="1" d="M 239.5 60 L 240 62.5 L 239 62.5 L 239.5 60 Z " /><path fill="rgb(146,132,94)" stroke="rgb(146,132,94)" stroke-width="1" opacity="1" d="M 259.5 61 L 259.5 64 Q 256.5 62.5 259.5 61 Z " /><path fill="rgb(146,132,94)" stroke="rgb(146,132,94)" stroke-width="1" opacity="1" d="M 237.5 62 L 238 64.5 L 237 64.5 L 237.5 62 Z " /><path fill="rgb(146,132,94)" stroke="rgb(146,132,94)" stroke-width="1" opacity="1" d="M 166.5 66 L 167.5 68 L 166.5 66 Z " /><path fill="rgb(146,132,94)" stroke="rgb(146,132,94)" stroke-width="1" opacity="1" d="M 179.5 66 L 182 66.5 L 179.5 67 L 179.5 66 Z " /><path fill="rgb(146,132,94)" stroke="rgb(146,132,94)" stroke-width="1" opacity="1" d="M 214.5 66 L 216 70.5 L 215 70.5 L 214.5 66 Z " /><path fill="rgb(146,132,94)" stroke="rgb(146,132,94)" stroke-width="1" opacity="1" d="M 239.5 66 L 238.5 68 L 239.5 66 Z " /><path fill="rgb(146,132,94)" stroke="rgb(146,132,94)" stroke-width="1" opacity="1" d="M 71.5 67 L 97.5 67 L 98 69.5 L 97 72 L 73.5 72 L 73 70.5 L 71.5 67 Z " /><path fill="rgb(146,132,94)" stroke="rgb(146,132,94)" stroke-width="1" opacity="1" d="M 200.5 68 L 201 75.5 L 200 75.5 L 200.5 68 Z " /><path fill="rgb(146,132,94)" stroke="rgb(146,132,94)" stroke-width="1" opacity="1" d="M 236.5 68 L 238 70.5 L 237 70.5 L 236.5 68 Z " /><path fill="rgb(146,132,94)" stroke="rgb(146,132,94)" stroke-width="1" opacity="1" d="M 245.5 68 L 246 69.5 L 245.5 71 L 249 71.5 L 245.5 72 L 243 70.5 L 245.5 68 Z " /><path fill="rgb(146,132,94)" stroke="rgb(146,132,94)" stroke-width="1" opacity="1" d="M 282.5 68 L 284 71.5 L 283 71.5 L 282.5 68 Z " /><path fill="rgb(146,132,94)" stroke="rgb(146,132,94)" stroke-width="1" opacity="1" d="M 268.5 69 L 269 75.5 L 268 75.5 L 268.5 69 Z " /><path fill="rgb(146,132,94)" stroke="rgb(146,132,94)" stroke-width="1" opacity="1" d="M 175.5 71 L 178 71.5 L 175.5 72 L 175.5 71 Z " /><path fill="rgb(146,132,94)" stroke="rgb(146,132,94)" stroke-width="1" opacity="1" d="M 261.5 71 L 262 74.5 L 261 74.5 L 261.5 71 Z " /><path fill="rgb(146,132,94)" stroke="rgb(146,132,94)" stroke-width="1" opacity="1" d="M 266.5 71 L 265.5 73 L 266.5 71 Z " /><path fill="rgb(146,132,94)" stroke="rgb(146,132,94)" stroke-width="1" opacity="1" d="M 255.5 74 L 256 76.5 L 255 76.5 L 255.5 74 Z " /><path fill="rgb(146,132,94)" stroke="rgb(146,132,94)" stroke-width="1" opacity="1" d="M 162.5 76 L 170.5 76 L 172 77.5 L 170.5 77 L 162.5 77 L 162.5 76 Z " /><path fill="rgb(146,132,94)" stroke="rgb(146,132,94)" stroke-width="1" opacity="1" d="M 208.5 76 L 210 76.5 L 208 77.5 L 209.5 80 L 206 77.5 L 208.5 76 Z " /><path fill="rgb(146,132,94)" stroke="rgb(146,132,94)" stroke-width="1" opacity="1" d="M 276.5 76 Q 280.3 74.8 279 78.5 L 276.5 82 L 276 80.5 L 276.5 78 L 278 77.5 L 276.5 76 Z " /><path fill="rgb(146,132,94)" stroke="rgb(146,132,94)" stroke-width="1" opacity="1" d="M 260.5 78 L 261.5 80 L 260.5 78 Z " /><path fill="rgb(146,132,94)" stroke="rgb(146,132,94)" stroke-width="1" opacity="1" d="M 172.5 79 L 174.5 82 L 172.5 79 Z " /><path fill="rgb(146,132,94)" stroke="rgb(146,132,94)" stroke-width="1" opacity="1" d="M 259.5 80 L 260.5 82 L 259.5 80 Z " /><path fill="rgb(146,132,94)" stroke="rgb(146,132,94)" stroke-width="1" opacity="1" d="M 287.5 80 L 288.5 82 L 287.5 80 Z " /><path fill="rgb(146,132,94)" stroke="rgb(146,132,94)" stroke-width="1" opacity="1" d="M 242.5 81 L 251 81.5 L 242.5 82 L 242.5 81 Z " /><path fill="rgb(146,132,94)" stroke="rgb(146,132,94)" stroke-width="1" opacity="1" d="M 166.5 82 L 165.5 84 L 166.5 82 Z " /><path fill="rgb(146,132,94)" stroke="rgb(146,132,94)" stroke-width="1" opacity="1" d="M 195.5 82 L 196 83.5 L 193.5 85 L 193.5 84 Q 196 84.7 195.5 82 Z " /><path fill="rgb(146,132,94)" stroke="rgb(146,132,94)" stroke-width="1" opacity="1" d="M 266.5 82 L 269 82.5 Q 266.9 85.8 266.5 82 Z " /><path fill="rgb(146,132,94)" stroke="rgb(146,132,94)" stroke-width="1" opacity="1" d="M 189.5 83 L 192 83.5 Q 190 88 188 84.5 L 189.5 83 Z " /><path fill="rgb(146,132,94)" stroke="rgb(146,132,94)" stroke-width="1" opacity="1" d="M 202.5 83 L 203.5 85 L 205 84.5 L 201.5 87 L 201.5 86 L 203 85.5 L 202.5 83 Z " /><path fill="rgb(146,132,94)" stroke="rgb(146,132,94)" stroke-width="1" opacity="1" d="M 257.5 83 L 256.5 85 L 257.5 83 Z " /><path fill="rgb(146,132,94)" stroke="rgb(146,132,94)" stroke-width="1" opacity="1" d="M 270.5 83 L 271.5 85 L 273 84.5 L 270.5 88 L 269 85.5 L 270.5 83 Z " /><path fill="rgb(146,132,94)" stroke="rgb(146,132,94)" stroke-width="1" opacity="1" d="M 265.5 84 L 269 87.5 L 268 88.5 L 267.5 90 L 267 88.5 L 267.5 87 Q 265.3 87.8 266 85.5 L 265.5 84 Z " /><path fill="rgb(146,132,94)" stroke="rgb(146,132,94)" stroke-width="1" opacity="1" d="M 280.5 84 L 282 87.5 L 280 86.5 L 280.5 84 Z " /><path fill="rgb(146,132,94)" stroke="rgb(146,132,94)" stroke-width="1" opacity="1" d="M 253.5 86 L 254.5 88 L 253.5 86 Z " /><path fill="rgb(146,132,94)" stroke="rgb(146,132,94)" stroke-width="1" opacity="1" d="M 237.5 87 L 249 87.5 L 237.5 88 L 237.5 87 Z " /><path fill="rgb(146,132,94)" stroke="rgb(146,132,94)" stroke-width="1" opacity="1" d="M 274.5 87 L 277 87.5 L 274.5 88 L 274.5 87 Z " /><path fill="rgb(146,132,94)" stroke="rgb(146,132,94)" stroke-width="1" opacity="1" d="M 199 88 L 201 88.5 L 199.5 91 L 199 88 Z " /><path fill="rgb(146,132,94)" stroke="rgb(146,132,94)" stroke-width="1" opacity="1" d="M 204.5 89 L 216 89.5 L 204.5 90 L 204.5 89 Z " /><path fill="rgb(146,132,94)" stroke="rgb(146,132,94)" stroke-width="1" opacity="1" d="M 237.5 89 L 249 89.5 L 237.5 90 L 237.5 89 Z " /><path fill="rgb(146,132,94)" stroke="rgb(146,132,94)" stroke-width="1" opacity="1" d="M 272.5 89 L 284 89.5 L 272.5 90 L 272.5 89 Z " /><path fill="rgb(146,132,94)" stroke="rgb(146,132,94)" stroke-width="1" opacity="1" d="M 201.5 90 L 202.5 92 L 201.5 90 Z " /><path fill="rgb(146,132,94)" stroke="rgb(146,132,94)" stroke-width="1" opacity="1" d="M 229.5 90 L 229 91.5 L 228.5 93 L 228 91.5 L 229.5 90 Z " /><path fill="rgb(146,132,94)" stroke="rgb(146,132,94)" stroke-width="1" opacity="1" d="M 260.5 90 L 259.5 92 L 260.5 90 Z " /><path fill="rgb(146,132,94)" stroke="rgb(146,132,94)" stroke-width="1" opacity="1" d="M 267 91 L 269 91.5 L 268.5 93 L 271 93.5 L 268.5 94 L 267 91 Z " /><path fill="rgb(146,132,94)" stroke="rgb(146,132,94)" stroke-width="1" opacity="1" d="M 208.5 92 L 211 93.5 L 209.5 94 L 208.5 92 Z " /><path fill="rgb(146,132,94)" stroke="rgb(146,132,94)" stroke-width="1" opacity="1" d="M 276.5 92 L 279 93.5 L 277.5 94 L 276.5 92 Z " /><path fill="rgb(146,132,94)" stroke="rgb(146,132,94)" stroke-width="1" opacity="1" d="M 216.5 95 L 220 95.5 L 216.5 96 L 216.5 95 Z " /><path fill="rgb(146,132,94)" stroke="rgb(146,132,94)" stroke-width="1" opacity="1" d="M 284.5 95 L 288 95.5 L 284.5 96 L 284.5 95 Z " /><path fill="rgb(146,132,94)" stroke="rgb(146,132,94)" stroke-width="1" opacity="1" d="M 224.5 108 L 227 109.5 L 225 109.5 L 226 113.5 L 225 117.5 L 225.5 119 L 223 118.5 L 223 109.5 L 224.5 108 Z " /><path fill="rgb(146,132,94)" stroke="rgb(146,132,94)" stroke-width="1" opacity="1" d="M 123.5 109 L 124 118.5 L 123 118.5 L 123.5 109 Z " /><path fill="rgb(146,132,94)" stroke="rgb(146,132,94)" stroke-width="1" opacity="1" d="M 162.5 109 L 163 118.5 L 162 118.5 L 162.5 109 Z " /><path fill="rgb(146,132,94)" stroke="rgb(146,132,94)" stroke-width="1" opacity="1" d="M 195.5 109 Q 194.9 113.6 197.5 115 L 199 114.5 Q 199.8 116.8 197.5 116 L 196 115.5 L 195.5 119 L 195.5 109 Z " /><path fill="rgb(146,132,94)" stroke="rgb(146,132,94)" stroke-width="1" opacity="1" d="M 245.5 109 L 246 112 L 249.5 114 L 251 113.5 L 250 116.5 L 257.5 112 L 260 112.5 L 256 114.5 L 258 118.5 L 256 119 L 254.5 114 L 254 116 L 250.5 118 L 249 117.5 Q 249.8 119.8 247.5 119 L 249 116.5 L 247.5 113 Q 244.5 112.1 246 116.5 L 245 116.5 L 246 112.5 L 245.5 109 Z " /><path fill="rgb(146,132,94)" stroke="rgb(146,132,94)" stroke-width="1" opacity="1" d="M 263 109 L 265 109.5 L 265 118.5 L 263 117.5 L 263 109 Z " /><path fill="rgb(146,132,94)" stroke="rgb(146,132,94)" stroke-width="1" opacity="1" d="M 281.5 109 L 283 114.5 L 281.5 119 L 281.5 109 Z " /><path fill="rgb(146,132,94)" stroke="rgb(146,132,94)" stroke-width="1" opacity="1" d="M 272 110 Q 274.7 108.9 274 111.5 L 274 113.5 Q 272.1 118.9 275.5 118 L 275.5 119 L 272 118 L 272 113 L 273.5 113 L 273.5 112 Q 270.9 112.7 272 110 Z " /><path fill="rgb(146,132,94)" stroke="rgb(146,132,94)" stroke-width="1" opacity="1" d="M 111.5 112 Q 113.8 111.3 113 113.5 L 111.5 112 Z " /><path fill="rgb(146,132,94)" stroke="rgb(146,132,94)" stroke-width="1" opacity="1" d="M 117.5 112 Q 121.5 111.5 122 114.5 L 121 119 L 119 118.5 L 121 114.5 L 117.5 113 L 117.5 112 Z " /><path fill="rgb(146,132,94)" stroke="rgb(146,132,94)" stroke-width="1" opacity="1" d="M 129.5 112 L 130 119 L 127 118.5 L 129 118 L 129.5 112 Z " /><path fill="rgb(146,132,94)" stroke="rgb(146,132,94)" stroke-width="1" opacity="1" d="M 131.5 112 L 135 112.5 L 131.5 113 L 131.5 112 Z " /><path fill="rgb(146,132,94)" stroke="rgb(146,132,94)" stroke-width="1" opacity="1" d="M 136.5 112 L 137 118.5 L 136 118.5 L 136.5 112 Z " /><path fill="rgb(146,132,94)" stroke="rgb(146,132,94)" stroke-width="1" opacity="1" d="M 145.5 112 L 149.5 114 L 153.5 112 L 153.5 113 L 150 114.5 L 152 118.5 L 149 117.5 Q 149.7 120.1 147 119 L 147 113.5 L 145.5 113 L 145.5 112 Z " /><path fill="rgb(146,132,94)" stroke="rgb(146,132,94)" stroke-width="1" opacity="1" d="M 164 112 L 169 112.5 L 165 114.5 L 164.5 119 L 164 112 Z " /><path fill="rgb(146,132,94)" stroke="rgb(146,132,94)" stroke-width="1" opacity="1" d="M 170.5 112 L 173 112.5 L 171.5 117 L 170.5 112 Z " /><path fill="rgb(146,132,94)" stroke="rgb(146,132,94)" stroke-width="1" opacity="1" d="M 181.5 112 L 183.5 113 L 185 112.5 L 184 117.5 L 184 119.5 L 183.5 121 L 183 119 Q 179.2 120.5 180 117.5 L 178.5 114 L 178 116 L 173.5 119 L 178.5 113 Q 180 115.5 181.5 112 Z M 182 113 L 180 115 L 181 117 Q 180 119 183 118 L 183 113 L 182 113 Z " /><path fill="rgb(146,132,94)" stroke="rgb(146,132,94)" stroke-width="1" opacity="1" d="M 190.5 112 L 194 112.5 L 190.5 113 L 190.5 112 Z " /><path fill="rgb(146,132,94)" stroke="rgb(146,132,94)" stroke-width="1" opacity="1" d="M 198.5 112 L 201 112.5 L 198.5 113 L 198.5 112 Z " /><path fill="rgb(146,132,94)" stroke="rgb(146,132,94)" stroke-width="1" opacity="1" d="M 203.5 112 L 207 112.5 L 203.5 113 L 203.5 112 Z " /><path fill="rgb(146,132,94)" stroke="rgb(146,132,94)" stroke-width="1" opacity="1" d="M 212.5 112 L 213.5 114 L 212.5 112 Z " /><path fill="rgb(146,132,94)" stroke="rgb(146,132,94)" stroke-width="1" opacity="1" d="M 215 112 L 220 112.5 L 216 114.5 L 215.5 119 L 215 112 Z " /><path fill="rgb(146,132,94)" stroke="rgb(146,132,94)" stroke-width="1" opacity="1" d="M 236.5 112 L 238.5 113 L 241.5 112 L 241.5 113 Q 238.8 112.4 240 118.5 L 238 117.5 Q 239.9 112.1 236.5 113 L 236.5 112 Z " /><path fill="rgb(146,132,94)" stroke="rgb(146,132,94)" stroke-width="1" opacity="1" d="M 266 112 L 271 112.5 L 267 114.5 L 266.5 119 L 266 112 Z " /><path fill="rgb(146,132,94)" stroke="rgb(146,132,94)" stroke-width="1" opacity="1" d="M 278.5 112 L 279.5 114 L 278.5 112 Z " /><path fill="rgb(146,132,94)" stroke="rgb(146,132,94)" stroke-width="1" opacity="1" d="M 294.5 112 L 295.5 114 L 294.5 112 Z " /><path fill="rgb(146,132,94)" stroke="rgb(146,132,94)" stroke-width="1" opacity="1" d="M 297.5 112 L 299.5 112 L 302 113.5 L 301.5 119 L 301 113 Q 297 111.6 299 118.5 L 298 118.5 L 297.5 112 Z " /><path fill="rgb(146,132,94)" stroke="rgb(146,132,94)" stroke-width="1" opacity="1" d="M 303.5 112 L 306 112.5 L 304.5 117 L 303.5 112 Z " /><path fill="rgb(146,132,94)" stroke="rgb(146,132,94)" stroke-width="1" opacity="1" d="M 142.5 113 L 143 117.5 L 140.5 119 L 140.5 118 L 142 118 L 142.5 113 Z " /><path fill="rgb(146,132,94)" stroke="rgb(146,132,94)" stroke-width="1" opacity="1" d="M 229.5 113 L 230 114.5 L 230 116.5 L 229.5 118 L 227 117 L 227 115 Q 229.8 116 229.5 113 Z " /><path fill="rgb(146,132,94)" stroke="rgb(146,132,94)" stroke-width="1" opacity="1" d="M 311.5 113 L 311 114.5 Q 311.8 116.8 309.5 116 L 306 118.5 L 311.5 113 Z " /><path fill="rgb(146,132,94)" stroke="rgb(146,132,94)" stroke-width="1" opacity="1" d="M 117.5 114 L 118 116.5 L 116 116.5 Q 116.8 118.8 114.5 118 L 115 116.5 Q 114.3 114.3 116.5 115 L 117.5 114 Z " /><path fill="rgb(146,132,94)" stroke="rgb(146,132,94)" stroke-width="1" opacity="1" d="M 131.5 114 L 132 116.5 L 131 116.5 L 131.5 114 Z " /><path fill="rgb(146,132,94)" stroke="rgb(146,132,94)" stroke-width="1" opacity="1" d="M 144.5 114 L 145 118.5 L 144 118.5 L 144.5 114 Z " /><path fill="rgb(146,132,94)" stroke="rgb(146,132,94)" stroke-width="1" opacity="1" d="M 186.5 114 L 187 118.5 L 186 118.5 L 186.5 114 Z " /><path fill="rgb(146,132,94)" stroke="rgb(146,132,94)" stroke-width="1" opacity="1" d="M 259.5 114 L 260 116.5 L 259 116.5 L 259.5 114 Z " /><path fill="rgb(146,132,94)" stroke="rgb(146,132,94)" stroke-width="1" opacity="1" d="M 212.5 115 L 214 115.5 L 211.5 117 L 212.5 115 Z " /><path fill="rgb(146,132,94)" stroke="rgb(146,132,94)" stroke-width="1" opacity="1" d="M 278.5 115 L 280 115.5 L 277.5 117 L 278.5 115 Z " /><path fill="rgb(146,132,94)" stroke="rgb(146,132,94)" stroke-width="1" opacity="1" d="M 294.5 115 L 296 115.5 L 293.5 117 L 294.5 115 Z " /><path fill="rgb(146,132,94)" stroke="rgb(146,132,94)" stroke-width="1" opacity="1" d="M 190.5 116 L 191 118 L 193 118.5 L 191.5 119 L 190.5 116 Z " /><path fill="rgb(146,132,94)" stroke="rgb(146,132,94)" stroke-width="1" opacity="1" d="M 69.5 117 L 99.5 117 L 101 118.5 L 101 130.5 L 99.5 132 L 69 131.5 L 100 131 L 100 118 L 69.5 118 L 69.5 117 Z " /><path fill="rgb(146,132,94)" stroke="rgb(146,132,94)" stroke-width="1" opacity="1" d="M 290.5 117 L 289.5 119 L 288 118.5 L 290.5 117 Z " /><path fill="rgb(146,132,94)" stroke="rgb(146,132,94)" stroke-width="1" opacity="1" d="M 290.5 121 L 289.5 123 L 290.5 121 Z " /><path fill="rgb(146,132,94)" stroke="rgb(146,132,94)" stroke-width="1" opacity="1" d="M 241.5 130 L 242 149.5 L 241 149.5 L 241.5 130 Z " /><path fill="rgb(146,132,94)" stroke="rgb(146,132,94)" stroke-width="1" opacity="1" d="M 311.5 130 L 312 149.5 L 311 149.5 L 311.5 130 Z " /><path fill="rgb(3,39,56)" stroke="rgb(3,39,56)" stroke-width="1" opacity="1" d="M 74 19 L 97.5 19 L 98 23 L 74.5 23 L 74 19 Z " /><path fill="rgb(3,39,56)" stroke="rgb(3,39,56)" stroke-width="1" opacity="1" d="M 323 23 L 342.5 23 L 343 26 L 323.5 26 L 323 23 Z " /><path fill="rgb(3,39,56)" stroke="rgb(3,39,56)" stroke-width="1" opacity="1" d="M 332.5 31 L 335 35.5 L 334 42 L 332 42 L 332 36.5 L 330.5 36 L 331 34.5 L 332.5 31 Z " /><path fill="rgb(3,39,56)" stroke="rgb(3,39,56)" stroke-width="1" opacity="1" d="M 183.5 35 Q 198.9 32.6 203 41.5 L 204 51.5 L 200.5 54 L 195.5 53 L 193.5 54 L 188.5 48 L 182.5 48 L 178 51.5 Q 179.1 54.8 176.5 54 L 178 56.5 Q 177.3 58.8 179.5 58 L 182.5 60 L 192.5 61 L 199 65.5 L 200 67.5 L 200 78.5 Q 197.5 86.5 191.5 91 Q 184.7 96.7 171.5 96 Q 164.1 94.9 161 89.5 Q 158 86.5 159 79.5 L 160 77 L 170.5 77 L 172 78.5 L 174.5 82 L 178.5 83 L 184.5 81 L 187 78.5 L 188 75.5 L 183.5 72 L 172.5 71 L 166 65.5 Q 163.5 62 165 54.5 Q 166.8 44.8 173.5 40 L 183.5 35 Z M 176 39 Q 177 42 175 41 L 171 46 L 172 48 Q 174 47 174 44 L 178 42 L 178 40 L 176 39 Z M 185 40 L 177 44 Q 172 48 170 55 L 170 61 L 172 64 L 180 67 L 190 68 L 193 72 L 192 81 Q 189 86 182 88 Q 174 90 171 87 L 167 83 L 165 84 L 166 86 L 172 90 Q 184 92 190 86 L 195 77 L 194 70 L 191 66 L 178 64 L 173 62 L 172 60 Q 172 51 175 47 L 182 43 Q 187 45 189 42 Q 195 43 198 48 L 198 46 L 191 40 L 185 40 Z M 175 52 L 175 54 L 177 53 L 175 52 Z M 182 92 L 182 93 L 184 93 L 182 92 Z " /><path fill="rgb(3,39,56)" stroke="rgb(3,39,56)" stroke-width="1" opacity="1" d="M 222.5 35 L 223.5 36 L 234 36 L 233 44.5 L 230.5 48 L 226 49 L 223 58.5 L 219 80.5 L 224 83.5 Q 224 91 220.5 95 L 197.5 95 Q 196.4 94.9 197 89.5 L 199 83 Q 203.9 83.1 206 79.5 Q 205.3 77.3 207.5 78 L 210 79.5 L 209 77.5 L 209.5 76 L 207.5 77 L 207 74.5 L 212 55.5 L 212 49 L 208 47.5 L 210 36 L 221.5 36 L 222.5 35 Z M 217 38 L 217 40 L 219 39 L 217 38 Z M 216 41 L 214 43 L 219 45 L 218 54 L 210 87 L 204 88 L 205 90 L 216 90 L 218 89 L 213 88 L 212 85 L 221 46 Q 223 42 228 43 L 228 41 L 216 41 Z M 205 81 L 207 85 L 209 84 L 209 82 L 205 81 Z M 203 83 L 201 85 L 204 86 L 206 86 L 203 83 Z M 201 85 Q 198 86 200 88 L 199 91 L 199 93 Q 200 95 205 94 L 208 93 L 210 94 L 211 94 Q 210 90 205 91 Q 203 94 201 90 L 203 87 L 201 85 Z " /><path fill="rgb(3,39,56)" stroke="rgb(3,39,56)" stroke-width="1" opacity="1" d="M 240.5 35 L 248.5 36 L 251.5 35 L 253.5 36 L 257.5 35 Q 259 37.5 264.5 36 L 271 41.5 L 272 51.5 L 266 64.5 L 268 67.5 L 268 78.5 L 261.5 90 L 251.5 95 L 226 95 L 225 92.5 L 238 36 L 240.5 35 Z M 245 41 L 241 46 L 232 88 L 238 90 Q 248 91 255 88 Q 261 84 263 77 Q 265 67 259 65 L 266 56 L 266 47 L 261 41 L 245 41 Z " /><path fill="rgb(3,39,56)" stroke="rgb(3,39,56)" stroke-width="1" opacity="1" d="M 290.5 35 L 292.5 36 L 302 36 Q 302.7 43.5 300 48 L 294 50.5 L 291 59.5 L 287 80.5 L 292 83.5 Q 292.5 91.5 288.5 95 L 266.5 95 L 265 93.5 L 266 87 L 268 87.5 L 267 89.5 L 267 91.5 L 268.5 94 L 276.5 93 L 278.5 94 L 276.5 91 Q 269.5 92.5 270 89.5 L 269.5 88 Q 271.8 88.8 271 86.5 L 270.5 85 L 273.5 86 L 272.5 84 L 270.5 83 L 267 85.5 L 269.5 82 L 274 81 L 281 50.5 L 276 47.5 L 277 40.5 L 279.5 36 L 289.5 36 L 290.5 35 Z M 293 37 L 292 39 L 294 38 L 293 37 Z M 284 38 L 284 39 L 287 39 L 284 38 Z M 284 41 L 282 43 L 287 43 L 287 50 L 282 69 L 282 73 L 280 77 L 279 86 L 278 87 L 272 88 L 273 90 L 284 90 L 286 89 L 281 87 L 282 77 L 290 44 L 296 43 L 296 41 L 284 41 Z M 276 76 L 276 79 Q 278 82 279 79 Q 280 74 276 76 Z M 277 80 L 273 83 L 275 83 L 274 85 L 276 85 L 277 82 L 277 80 Z " /><path fill="rgb(3,39,56)" stroke="rgb(3,39,56)" stroke-width="1" opacity="1" d="M 245.5 43 L 258.5 43 L 263 45.5 Q 265.3 48.7 264 55.5 L 261 61 L 254.5 64 L 240 64 L 243 45.5 L 245.5 43 Z M 250 49 Q 245 51 246 58 L 249 59 L 256 58 Q 259 56 259 52 Q 257 47 250 49 Z " /><path fill="rgb(3,39,56)" stroke="rgb(3,39,56)" stroke-width="1" opacity="1" d="M 128.5 66 L 148.5 66 L 149 69.5 L 147.5 71 L 128.5 71 L 127 67.5 L 128.5 66 Z " /><path fill="rgb(3,39,56)" stroke="rgb(3,39,56)" stroke-width="1" opacity="1" d="M 240.5 66 Q 253.7 63.8 260 68.5 L 261 77.5 L 254.5 86 L 252.5 87 L 235.5 87 L 234 84.5 L 238 68.5 L 240.5 66 Z M 246 68 L 244 71 L 246 70 L 246 68 Z M 246 71 L 244 72 L 241 77 Q 240 81 243 82 Q 249 83 253 81 L 256 77 L 255 72 L 246 71 Z " /><path fill="rgb(3,39,56)" stroke="rgb(3,39,56)" stroke-width="1" opacity="1" d="M 323 102 L 342.5 102 L 343 106 L 323.5 106 L 323 102 Z " /><path fill="rgb(3,39,56)" stroke="rgb(3,39,56)" stroke-width="1" opacity="1" d="M 125.5 112 L 127 118.5 L 125 117.5 L 125.5 112 Z " /><path fill="rgb(3,39,56)" stroke="rgb(3,39,56)" stroke-width="1" opacity="1" d="M 139.5 112 L 139 113.5 L 138.5 115 L 138 113.5 L 139.5 112 Z " /><path fill="rgb(3,39,56)" stroke="rgb(3,39,56)" stroke-width="1" opacity="1" d="M 155.5 112 L 156 114.5 L 155 114.5 L 155.5 112 Z " /><path fill="rgb(3,39,56)" stroke="rgb(3,39,56)" stroke-width="1" opacity="1" d="M 186 112 L 188 112.5 L 186 113.5 L 186 112 Z " /><path fill="rgb(3,39,56)" stroke="rgb(3,39,56)" stroke-width="1" opacity="1" d="M 201.5 112 L 202 114.5 L 201 114.5 L 201.5 112 Z " /><path fill="rgb(3,39,56)" stroke="rgb(3,39,56)" stroke-width="1" opacity="1" d="M 211.5 112 L 211 113.5 L 212 118.5 L 210 117.5 Q 209 113 211.5 112 Z " /><path fill="rgb(3,39,56)" stroke="rgb(3,39,56)" stroke-width="1" opacity="1" d="M 227.5 112 L 227.5 115 Q 224.5 113.5 227.5 112 Z " /><path fill="rgb(3,39,56)" stroke="rgb(3,39,56)" stroke-width="1" opacity="1" d="M 232.5 112 Q 235 113 234 117.5 L 232 118.5 L 233 113.5 L 232.5 112 Z " /><path fill="rgb(3,39,56)" stroke="rgb(3,39,56)" stroke-width="1" opacity="1" d="M 242.5 112 L 243 118.5 L 242 118.5 L 242.5 112 Z " /><path fill="rgb(3,39,56)" stroke="rgb(3,39,56)" stroke-width="1" opacity="1" d="M 277.5 112 L 277 113.5 L 278 118.5 L 276 117.5 Q 275 113 277.5 112 Z " /><path fill="rgb(3,39,56)" stroke="rgb(3,39,56)" stroke-width="1" opacity="1" d="M 284.5 112 L 285 118.5 L 284 118.5 L 284.5 112 Z " /><path fill="rgb(3,39,56)" stroke="rgb(3,39,56)" stroke-width="1" opacity="1" d="M 287.5 112 L 287 113.5 L 286.5 115 L 286 113.5 L 287.5 112 Z " /><path fill="rgb(3,39,56)" stroke="rgb(3,39,56)" stroke-width="1" opacity="1" d="M 289.5 112 Q 292.9 111.1 291 116.5 L 290 116.5 L 289.5 112 Z " /><path fill="rgb(3,39,56)" stroke="rgb(3,39,56)" stroke-width="1" opacity="1" d="M 293.5 112 L 293 113.5 L 294 118.5 L 292 117.5 Q 291 113 293.5 112 Z " /><path fill="rgb(3,39,56)" stroke="rgb(3,39,56)" stroke-width="1" opacity="1" d="M 113.5 113 L 114.5 115 L 113.5 113 Z " /><path fill="rgb(3,39,56)" stroke="rgb(3,39,56)" stroke-width="1" opacity="1" d="M 168.5 113 L 169 118.5 L 168 118.5 L 168.5 113 Z " /><path fill="rgb(3,39,56)" stroke="rgb(3,39,56)" stroke-width="1" opacity="1" d="M 193.5 113 L 194 118.5 L 193 118.5 L 193.5 113 Z " /><path fill="rgb(3,39,56)" stroke="rgb(3,39,56)" stroke-width="1" opacity="1" d="M 219.5 113 L 220 118.5 L 219 118.5 L 219.5 113 Z " /><path fill="rgb(3,39,56)" stroke="rgb(3,39,56)" stroke-width="1" opacity="1" d="M 270.5 113 L 271 118.5 L 270 118.5 L 270.5 113 Z " /><path fill="rgb(3,39,56)" stroke="rgb(3,39,56)" stroke-width="1" opacity="1" d="M 157.5 115 L 159 117.5 L 157 118.5 L 158 116.5 L 157.5 115 Z " /><path fill="rgb(3,39,56)" stroke="rgb(3,39,56)" stroke-width="1" opacity="1" d="M 205.5 115 L 207 117.5 L 206 117.5 L 205.5 115 Z " /><path fill="rgb(3,39,56)" stroke="rgb(3,39,56)" stroke-width="1" opacity="1" d="M 235.5 115 L 236 118.5 L 235 118.5 L 235.5 115 Z " /><path fill="rgb(3,39,56)" stroke="rgb(3,39,56)" stroke-width="1" opacity="1" d="M 138.5 116 L 140 118.5 L 138 117.5 L 138.5 116 Z " /><path fill="rgb(3,39,56)" stroke="rgb(3,39,56)" stroke-width="1" opacity="1" d="M 198.5 116 L 200 118.5 L 198 117.5 L 198.5 116 Z " /><path fill="rgb(3,39,56)" stroke="rgb(3,39,56)" stroke-width="1" opacity="1" d="M 286.5 116 L 288 118.5 L 286 117.5 L 286.5 116 Z " /><path fill="rgb(3,39,56)" stroke="rgb(3,39,56)" stroke-width="1" opacity="1" d="M 117.5 117 L 118.5 119 L 117.5 117 Z " /><path fill="rgb(3,39,56)" stroke="rgb(3,39,56)" stroke-width="1" opacity="1" d="M 131.5 117 L 132.5 119 L 131.5 117 Z " /><path fill="rgb(3,39,56)" stroke="rgb(3,39,56)" stroke-width="1" opacity="1" d="M 171.5 117 L 172.5 119 Q 169.7 119.7 171.5 117 Z " /><path fill="rgb(3,39,56)" stroke="rgb(3,39,56)" stroke-width="1" opacity="1" d="M 227.5 117 L 226.5 119 L 227.5 117 Z " /><path fill="rgb(3,39,56)" stroke="rgb(3,39,56)" stroke-width="1" opacity="1" d="M 245.5 117 L 246.5 119 L 245.5 117 Z " /><path fill="rgb(3,39,56)" stroke="rgb(3,39,56)" stroke-width="1" opacity="1" d="M 259.5 117 L 258.5 119 L 259.5 117 Z " /><path fill="rgb(3,39,56)" stroke="rgb(3,39,56)" stroke-width="1" opacity="1" d="M 304.5 117 L 305.5 119 Q 302.7 119.7 304.5 117 Z " /><path fill="rgb(3,39,56)" stroke="rgb(3,39,56)" stroke-width="1" opacity="1" d="M 69 118 L 100 118 L 100 131 L 69 131 L 69 118 Z " /><path fill="rgb(3,39,56)" stroke="rgb(3,39,56)" stroke-width="1" opacity="1" d="M 290.5 118 L 291 120.5 L 290 120.5 L 290.5 118 Z " /><path fill="rgb(3,39,56)" stroke="rgb(3,39,56)" stroke-width="1" opacity="1" d="M 183.5 121 L 182.5 123 L 181 122.5 L 183.5 121 Z " /><path fill="rgb(3,39,56)" stroke="rgb(3,39,56)" stroke-width="1" opacity="1" d="M 169 130 L 172 130.5 L 172 150 L 169 149.5 L 169 130 Z " /><path fill="rgb(3,39,56)" stroke="rgb(3,39,56)" stroke-width="1" opacity="1" d="M 238 130 L 241 130.5 L 241 150 L 238 149.5 L 238 130 Z " /><path fill="rgb(3,39,56)" stroke="rgb(3,39,56)" stroke-width="1" opacity="1" d="M 308 130 L 311 130.5 L 311 150 L 308 149.5 L 308 130 Z " /><path fill="rgb(203,210,206)" stroke="rgb(203,210,206)" stroke-width="1" opacity="1" d="M 102.5 40 L 103 46.5 L 102 46.5 L 102.5 40 Z " /><path fill="rgb(203,210,206)" stroke="rgb(203,210,206)" stroke-width="1" opacity="1" d="M 192.5 41 L 191.5 43 L 192.5 41 Z " /><path fill="rgb(203,210,206)" stroke="rgb(203,210,206)" stroke-width="1" opacity="1" d="M 217.5 41 L 221 41.5 L 217.5 42 L 217.5 41 Z " /><path fill="rgb(203,210,206)" stroke="rgb(203,210,206)" stroke-width="1" opacity="1" d="M 245.5 41 L 249 41.5 L 246.5 43 L 245.5 41 Z " /><path fill="rgb(203,210,206)" stroke="rgb(203,210,206)" stroke-width="1" opacity="1" d="M 251.5 41 L 253.5 42 L 255.5 42 L 258.5 41 L 258.5 42 L 252.5 43 L 251.5 41 Z " /><path fill="rgb(203,210,206)" stroke="rgb(203,210,206)" stroke-width="1" opacity="1" d="M 285.5 41 L 290 41.5 L 285.5 42 L 285.5 41 Z " /><path fill="rgb(203,210,206)" stroke="rgb(203,210,206)" stroke-width="1" opacity="1" d="M 170.5 42 L 169.5 44 L 170.5 42 Z " /><path fill="rgb(203,210,206)" stroke="rgb(203,210,206)" stroke-width="1" opacity="1" d="M 196.5 44 L 197.5 46 L 196.5 44 Z " /><path fill="rgb(203,210,206)" stroke="rgb(203,210,206)" stroke-width="1" opacity="1" d="M 272.5 45 L 273 50.5 L 272 50.5 L 272.5 45 Z " /><path fill="rgb(203,210,206)" stroke="rgb(203,210,206)" stroke-width="1" opacity="1" d="M 242.5 46 L 241.5 48 L 242.5 46 Z " /><path fill="rgb(203,210,206)" stroke="rgb(203,210,206)" stroke-width="1" opacity="1" d="M 184.5 48 L 187 48.5 L 184.5 49 L 184.5 48 Z " /><path fill="rgb(203,210,206)" stroke="rgb(203,210,206)" stroke-width="1" opacity="1" d="M 252.5 49 L 255 49.5 L 252.5 50 L 252.5 49 Z " /><path fill="rgb(203,210,206)" stroke="rgb(203,210,206)" stroke-width="1" opacity="1" d="M 219.5 50 L 218.5 52 L 219.5 50 Z " /><path fill="rgb(203,210,206)" stroke="rgb(203,210,206)" stroke-width="1" opacity="1" d="M 172.5 51 L 171.5 53 L 172.5 51 Z " /><path fill="rgb(203,210,206)" stroke="rgb(203,210,206)" stroke-width="1" opacity="1" d="M 316.5 52 L 312.5 57 L 316.5 52 Z " /><path fill="rgb(203,210,206)" stroke="rgb(203,210,206)" stroke-width="1" opacity="1" d="M 349.5 52 L 353.5 57 L 349.5 52 Z " /><path fill="rgb(203,210,206)" stroke="rgb(203,210,206)" stroke-width="1" opacity="1" d="M 344.5 54 L 343.5 56 L 344.5 54 Z " /><path fill="rgb(203,210,206)" stroke="rgb(203,210,206)" stroke-width="1" opacity="1" d="M 346.5 55 L 350.5 60 L 346.5 55 Z " /><path fill="rgb(203,210,206)" stroke="rgb(203,210,206)" stroke-width="1" opacity="1" d="M 171.5 56 L 172 58.5 L 171 58.5 L 171.5 56 Z " /><path fill="rgb(203,210,206)" stroke="rgb(203,210,206)" stroke-width="1" opacity="1" d="M 285 56 L 287 56.5 L 285 57.5 L 285 56 Z " /><path fill="rgb(203,210,206)" stroke="rgb(203,210,206)" stroke-width="1" opacity="1" d="M 318.5 56 L 320 56.5 L 315.5 60 L 318.5 56 Z " /><path fill="rgb(203,210,206)" stroke="rgb(203,210,206)" stroke-width="1" opacity="1" d="M 184.5 59 L 187 59.5 L 184.5 60 L 184.5 59 Z " /><path fill="rgb(203,210,206)" stroke="rgb(203,210,206)" stroke-width="1" opacity="1" d="M 217.5 59 L 216.5 61 L 217.5 59 Z " /><path fill="rgb(203,210,206)" stroke="rgb(203,210,206)" stroke-width="1" opacity="1" d="M 239.5 59 L 238.5 61 L 239.5 59 Z " /><path fill="rgb(203,210,206)" stroke="rgb(203,210,206)" stroke-width="1" opacity="1" d="M 241.5 64 Q 245.3 63 244 66 L 240 65.5 L 241.5 64 Z " /><path fill="rgb(203,210,206)" stroke="rgb(203,210,206)" stroke-width="1" opacity="1" d="M 246.5 64 L 253 64.5 L 248.5 66 L 246.5 64 Z " /><path fill="rgb(203,210,206)" stroke="rgb(203,210,206)" stroke-width="1" opacity="1" d="M 128.5 65 L 131 65.5 L 128.5 66 L 128.5 65 Z " /><path fill="rgb(203,210,206)" stroke="rgb(203,210,206)" stroke-width="1" opacity="1" d="M 184.5 65 L 185 67 L 183 66.5 L 184.5 65 Z " /><path fill="rgb(203,210,206)" stroke="rgb(203,210,206)" stroke-width="1" opacity="1" d="M 149.5 67 L 150 69.5 L 149 69.5 L 149.5 67 Z " /><path fill="rgb(203,210,206)" stroke="rgb(203,210,206)" stroke-width="1" opacity="1" d="M 191.5 67 L 192.5 69 L 191.5 67 Z " /><path fill="rgb(203,210,206)" stroke="rgb(203,210,206)" stroke-width="1" opacity="1" d="M 341.5 69 L 348 69.5 L 341.5 70 L 341.5 69 Z " /><path fill="rgb(203,210,206)" stroke="rgb(203,210,206)" stroke-width="1" opacity="1" d="M 314.5 71 L 321 71.5 L 314.5 72 L 314.5 71 Z " /><path fill="rgb(203,210,206)" stroke="rgb(203,210,206)" stroke-width="1" opacity="1" d="M 193.5 72 L 195 74.5 L 194 74.5 L 193.5 72 Z " /><path fill="rgb(203,210,206)" stroke="rgb(203,210,206)" stroke-width="1" opacity="1" d="M 344.5 73 L 351 73.5 L 344.5 74 L 344.5 73 Z " /><path fill="rgb(203,210,206)" stroke="rgb(203,210,206)" stroke-width="1" opacity="1" d="M 317.5 75 L 324 75.5 L 317.5 76 L 317.5 75 Z " /><path fill="rgb(203,210,206)" stroke="rgb(203,210,206)" stroke-width="1" opacity="1" d="M 281.5 78 L 280.5 80 L 281.5 78 Z " /><path fill="rgb(203,210,206)" stroke="rgb(203,210,206)" stroke-width="1" opacity="1" d="M 253.5 79 L 252.5 81 L 253.5 79 Z " /><path fill="rgb(203,210,206)" stroke="rgb(203,210,206)" stroke-width="1" opacity="1" d="M 158.5 81 L 159 83.5 L 158 83.5 L 158.5 81 Z " /><path fill="rgb(203,210,206)" stroke="rgb(203,210,206)" stroke-width="1" opacity="1" d="M 206 81 L 208 81.5 L 206 82.5 L 206 81 Z " /><path fill="rgb(203,210,206)" stroke="rgb(203,210,206)" stroke-width="1" opacity="1" d="M 268.5 85 L 270 87.5 L 268 88.5 L 269 86.5 L 268.5 85 Z " /><path fill="rgb(203,210,206)" stroke="rgb(203,210,206)" stroke-width="1" opacity="1" d="M 315.5 85 L 319.5 90 L 315.5 85 Z " /><path fill="rgb(203,210,206)" stroke="rgb(203,210,206)" stroke-width="1" opacity="1" d="M 350.5 85 L 347.5 89 L 346 88.5 L 350.5 85 Z " /><path fill="rgb(203,210,206)" stroke="rgb(203,210,206)" stroke-width="1" opacity="1" d="M 199.5 86 L 200.5 88 L 199.5 86 Z " /><path fill="rgb(203,210,206)" stroke="rgb(203,210,206)" stroke-width="1" opacity="1" d="M 250.5 87 L 251.5 89 L 250.5 87 Z " /><path fill="rgb(203,210,206)" stroke="rgb(203,210,206)" stroke-width="1" opacity="1" d="M 193.5 89 L 192.5 91 L 193.5 89 Z " /><path fill="rgb(203,210,206)" stroke="rgb(203,210,206)" stroke-width="1" opacity="1" d="M 313.5 89 L 315.5 92 L 313.5 89 Z " /><path fill="rgb(203,210,206)" stroke="rgb(203,210,206)" stroke-width="1" opacity="1" d="M 322.5 89 L 321.5 91 L 322.5 89 Z " /><path fill="rgb(203,210,206)" stroke="rgb(203,210,206)" stroke-width="1" opacity="1" d="M 352.5 89 L 350.5 92 L 352.5 89 Z " /><path fill="rgb(203,210,206)" stroke="rgb(203,210,206)" stroke-width="1" opacity="1" d="M 274.5 91 Q 276.8 90.3 276 92.5 L 274.5 91 Z " /><path fill="rgb(203,210,206)" stroke="rgb(203,210,206)" stroke-width="1" opacity="1" d="M 272.5 92 L 273 94 L 271 93.5 L 272.5 92 Z " /><path fill="rgb(203,210,206)" stroke="rgb(203,210,206)" stroke-width="1" opacity="1" d="M 347.5 93 L 346.5 95 L 347.5 93 Z " /><path fill="rgb(203,210,206)" stroke="rgb(203,210,206)" stroke-width="1" opacity="1" d="M 198.5 95 L 202 95.5 L 198.5 96 L 198.5 95 Z " /><path fill="rgb(203,210,206)" stroke="rgb(203,210,206)" stroke-width="1" opacity="1" d="M 211.5 95 L 215 95.5 L 211.5 96 L 211.5 95 Z " /><path fill="rgb(203,210,206)" stroke="rgb(203,210,206)" stroke-width="1" opacity="1" d="M 226.5 95 L 242 95.5 L 226.5 96 L 226.5 95 Z " /><path fill="rgb(203,210,206)" stroke="rgb(203,210,206)" stroke-width="1" opacity="1" d="M 245.5 95 L 249 95.5 L 245.5 96 L 245.5 95 Z " /><path fill="rgb(203,210,206)" stroke="rgb(203,210,206)" stroke-width="1" opacity="1" d="M 266.5 95 L 270 95.5 L 266.5 96 L 266.5 95 Z " /><path fill="rgb(203,210,206)" stroke="rgb(203,210,206)" stroke-width="1" opacity="1" d="M 279.5 95 L 284 95.5 L 279.5 96 L 279.5 95 Z " /><path fill="rgb(203,210,206)" stroke="rgb(203,210,206)" stroke-width="1" opacity="1" d="M 174.5 96 L 178 96.5 L 174.5 97 L 174.5 96 Z " /><path fill="rgb(203,210,206)" stroke="rgb(203,210,206)" stroke-width="1" opacity="1" d="M 122 108 L 124 108.5 L 123 109.5 L 122.5 119 L 122 108 Z " /><path fill="rgb(203,210,206)" stroke="rgb(203,210,206)" stroke-width="1" opacity="1" d="M 245.5 108 L 245 109.5 L 244.5 119 L 244 109.5 L 245.5 108 Z " /><path fill="rgb(203,210,206)" stroke="rgb(203,210,206)" stroke-width="1" opacity="1" d="M 161.5 109 L 162 118.5 L 161 118.5 L 161.5 109 Z " /><path fill="rgb(203,210,206)" stroke="rgb(203,210,206)" stroke-width="1" opacity="1" d="M 171.5 109 L 170.5 111 L 171.5 109 Z " /><path fill="rgb(203,210,206)" stroke="rgb(203,210,206)" stroke-width="1" opacity="1" d="M 304.5 109 L 303.5 111 L 304.5 109 Z " /><path fill="rgb(203,210,206)" stroke="rgb(203,210,206)" stroke-width="1" opacity="1" d="M 172.5 111 L 173.5 113 L 172.5 111 Z " /><path fill="rgb(203,210,206)" stroke="rgb(203,210,206)" stroke-width="1" opacity="1" d="M 188.5 111 L 189.5 113 L 188.5 111 Z " /><path fill="rgb(203,210,206)" stroke="rgb(203,210,206)" stroke-width="1" opacity="1" d="M 305.5 111 L 306.5 113 L 305.5 111 Z " /><path fill="rgb(203,210,206)" stroke="rgb(203,210,206)" stroke-width="1" opacity="1" d="M 128.5 112 L 129 116.5 L 128 116.5 L 128.5 112 Z " /><path fill="rgb(203,210,206)" stroke="rgb(203,210,206)" stroke-width="1" opacity="1" d="M 185.5 112 L 186 118.5 L 184 117.5 L 185.5 112 Z " /><path fill="rgb(203,210,206)" stroke="rgb(203,210,206)" stroke-width="1" opacity="1" d="M 302.5 112 Q 305 113 304 117.5 L 302 118.5 L 302.5 112 Z " /><path fill="rgb(203,210,206)" stroke="rgb(203,210,206)" stroke-width="1" opacity="1" d="M 135.5 113 L 136 118.5 L 135 118.5 L 135.5 113 Z " /><path fill="rgb(203,210,206)" stroke="rgb(203,210,206)" stroke-width="1" opacity="1" d="M 170.5 113 L 171 117.5 L 170 117.5 L 170.5 113 Z " /><path fill="rgb(203,210,206)" stroke="rgb(203,210,206)" stroke-width="1" opacity="1" d="M 196.5 113 Q 199.2 114.3 197 115.5 L 196.5 117 L 196 115.5 L 196.5 113 Z " /><path fill="rgb(203,210,206)" stroke="rgb(203,210,206)" stroke-width="1" opacity="1" d="M 141.5 114 L 142 116.5 L 141 116.5 L 141.5 114 Z " /><path fill="rgb(203,210,206)" stroke="rgb(203,210,206)" stroke-width="1" opacity="1" d="M 165.5 114 L 166 118.5 L 165 118.5 L 165.5 114 Z " /><path fill="rgb(203,210,206)" stroke="rgb(203,210,206)" stroke-width="1" opacity="1" d="M 216.5 114 L 217 118.5 L 216 118.5 L 216.5 114 Z " /><path fill="rgb(203,210,206)" stroke="rgb(203,210,206)" stroke-width="1" opacity="1" d="M 260.5 114 L 261 116.5 L 260 116.5 L 260.5 114 Z " /><path fill="rgb(203,210,206)" stroke="rgb(203,210,206)" stroke-width="1" opacity="1" d="M 267.5 114 L 268 118.5 L 267 118.5 L 267.5 114 Z " /><path fill="rgb(203,210,206)" stroke="rgb(203,210,206)" stroke-width="1" opacity="1" d="M 158.5 115 L 157.5 117 L 158.5 115 Z " /><path fill="rgb(203,210,206)" stroke="rgb(203,210,206)" stroke-width="1" opacity="1" d="M 211.5 115 L 212.5 117 L 211.5 115 Z " /><path fill="rgb(203,210,206)" stroke="rgb(203,210,206)" stroke-width="1" opacity="1" d="M 277.5 115 L 278.5 117 L 277.5 115 Z " /><path fill="rgb(203,210,206)" stroke="rgb(203,210,206)" stroke-width="1" opacity="1" d="M 293.5 115 L 294.5 117 L 293.5 115 Z " /><path fill="rgb(128,196,224)" stroke="rgb(128,196,224)" stroke-width="1" opacity="1" d="M 84.5 7 L 89.5 8 L 98 15.5 L 99 17.5 L 74.5 18 L 73.5 19 Q 69.8 16.7 75 14.5 L 77.5 11 L 84.5 7 Z " /><path fill="rgb(128,196,224)" stroke="rgb(128,196,224)" stroke-width="1" opacity="1" d="M 325 7 L 341 7 L 341 22 L 325 22 L 325 7 Z " /><path fill="rgb(128,196,224)" stroke="rgb(128,196,224)" stroke-width="1" opacity="1" d="M 70.5 23 L 71 29.5 L 70 29.5 L 70.5 23 Z " /><path fill="rgb(128,196,224)" stroke="rgb(128,196,224)" stroke-width="1" opacity="1" d="M 325 27 L 341 27 L 341 47.5 L 339.5 47 L 326.5 47 L 325.5 48 L 325 27 Z M 333 31 L 330 35 L 331 37 L 331 42 L 334 42 L 336 36 L 334 33 Q 335 30 333 31 Z " /><path fill="rgb(128,196,224)" stroke="rgb(128,196,224)" stroke-width="1" opacity="1" d="M 62.5 29 Q 67 28 68 30.5 L 63 34.5 L 62 42.5 L 67 48.5 Q 53.5 79 30.5 100 L 18.5 109 L 10.5 113 L 6 113 L 7.5 109 Q 24 99 36 84.5 Q 46.9 71.9 54 55.5 L 59 41.5 L 60 32.5 L 62.5 29 Z " /><path fill="rgb(128,196,224)" stroke="rgb(128,196,224)" stroke-width="1" opacity="1" d="M 103 37 L 131.5 37 Q 138.7 38.8 142 44.5 L 146 54.5 L 146 64.5 L 147 65.5 L 145.5 65 L 132.5 65 L 131.5 66 L 132 64.5 L 130 55.5 L 125.5 51 L 103 51 L 103 37 Z " /><path fill="rgb(128,196,224)" stroke="rgb(128,196,224)" stroke-width="1" opacity="1" d="M 176.5 40 L 177.5 42 L 176.5 41 L 174 42.5 L 176.5 40 Z " /><path fill="rgb(128,196,224)" stroke="rgb(128,196,224)" stroke-width="1" opacity="1" d="M 70.5 49 L 71 66.5 L 70 66.5 L 70.5 49 Z " /><path fill="rgb(128,196,224)" stroke="rgb(128,196,224)" stroke-width="1" opacity="1" d="M 330.5 51 L 340 52 L 335 64 L 330.5 65 L 325 57.5 L 325 53.5 L 330.5 51 Z " /><path fill="rgb(128,196,224)" stroke="rgb(128,196,224)" stroke-width="1" opacity="1" d="M 340.5 62 L 341 68.5 L 339 67.5 L 340.5 62 Z " /><path fill="rgb(128,196,224)" stroke="rgb(128,196,224)" stroke-width="1" opacity="1" d="M 325.5 65 L 326 68.5 L 325 68.5 L 325.5 65 Z " /><path fill="rgb(128,196,224)" stroke="rgb(128,196,224)" stroke-width="1" opacity="1" d="M 74 72 L 96 72 L 96 117 L 74 117 L 74 72 Z " /><path fill="rgb(128,196,224)" stroke="rgb(128,196,224)" stroke-width="1" opacity="1" d="M 137.5 76 L 140 77.5 L 148 90.5 L 148 95.5 L 144.5 101 L 136.5 102 L 133 99.5 Q 130.2 96.8 131 90.5 Q 132.8 81.8 137.5 76 Z M 134 90 L 135 98 L 138 99 L 140 99 L 136 96 Q 138 89 134 90 Z " /><path fill="rgb(128,196,224)" stroke="rgb(128,196,224)" stroke-width="1" opacity="1" d="M 325.5 76 Q 327.8 76.8 327 80.5 L 325.5 83 L 325.5 76 Z " /><path fill="rgb(128,196,224)" stroke="rgb(128,196,224)" stroke-width="1" opacity="1" d="M 340.5 76 L 341 79.5 L 340 79.5 L 339 77.5 L 340.5 76 Z " /><path fill="rgb(128,196,224)" stroke="rgb(128,196,224)" stroke-width="1" opacity="1" d="M 334.5 80 L 337 81.5 L 341 87.5 L 341 91.5 Q 337.8 94.8 330.5 94 L 326 93 L 331 81 L 334.5 80 Z " /><path fill="rgb(128,196,224)" stroke="rgb(128,196,224)" stroke-width="1" opacity="1" d="M 207.5 82 L 206.5 84 L 207.5 82 Z " /><path fill="rgb(128,196,224)" stroke="rgb(128,196,224)" stroke-width="1" opacity="1" d="M 279.5 82 L 280.5 84 L 279.5 82 Z " /><path fill="rgb(128,196,224)" stroke="rgb(128,196,224)" stroke-width="1" opacity="1" d="M 325.5 97 L 326.5 98 L 339.5 98 L 341 97.5 Q 341.5 102 340.5 102 L 325 102 L 325.5 97 Z " /><path fill="rgb(128,196,224)" stroke="rgb(128,196,224)" stroke-width="1" opacity="1" d="M 325 106 L 341 106 L 341 132.5 Q 339.3 140.3 334.5 145 L 327.5 148 L 312 148 L 312 132 L 321.5 132 L 324 131 L 325 128.5 L 325 106 Z " /><path fill="rgb(128,196,224)" stroke="rgb(128,196,224)" stroke-width="1" opacity="1" d="M 100.5 131 L 101.5 132 L 169 132 L 169 147.5 L 168.5 148 L 48 148 L 48 132.5 L 48.5 132 L 99.5 132 L 100.5 131 Z " /><path fill="rgb(128,196,224)" stroke="rgb(128,196,224)" stroke-width="1" opacity="1" d="M 172.5 131 L 173.5 132 L 238 132 L 238 147.5 L 237.5 148 L 173 148 L 173 132.5 L 172.5 131 Z " /><path fill="rgb(128,196,224)" stroke="rgb(128,196,224)" stroke-width="1" opacity="1" d="M 242 132 L 307.5 132 L 308 132.5 L 308 148 L 242.5 148 L 242 147.5 L 242 132 Z " /><path fill="rgb(161,202,218)" stroke="rgb(161,202,218)" stroke-width="1" opacity="1" d="M 102.5 37 L 103 39.5 L 102 39.5 L 102.5 37 Z " /><path fill="rgb(161,202,218)" stroke="rgb(161,202,218)" stroke-width="1" opacity="1" d="M 199.5 37 L 202.5 41 L 199.5 37 Z " /><path fill="rgb(161,202,218)" stroke="rgb(161,202,218)" stroke-width="1" opacity="1" d="M 172.5 40 L 171.5 42 L 172.5 40 Z " /><path fill="rgb(161,202,218)" stroke="rgb(161,202,218)" stroke-width="1" opacity="1" d="M 288.5 47 L 287.5 49 L 288.5 47 Z " /><path fill="rgb(161,202,218)" stroke="rgb(161,202,218)" stroke-width="1" opacity="1" d="M 295.5 49 L 294.5 51 L 295.5 49 Z " /><path fill="rgb(161,202,218)" stroke="rgb(161,202,218)" stroke-width="1" opacity="1" d="M 190.5 68 L 192.5 71 L 190.5 68 Z " /><path fill="rgb(161,202,218)" stroke="rgb(161,202,218)" stroke-width="1" opacity="1" d="M 215.5 68 L 214.5 70 L 215.5 68 Z " /><path fill="rgb(161,202,218)" stroke="rgb(161,202,218)" stroke-width="1" opacity="1" d="M 283.5 69 L 282.5 71 L 283.5 69 Z " /><path fill="rgb(161,202,218)" stroke="rgb(161,202,218)" stroke-width="1" opacity="1" d="M 168.5 85 Q 171.5 86.5 168.5 88 Q 165.5 86.5 168.5 85 Z " /><path fill="rgb(161,202,218)" stroke="rgb(161,202,218)" stroke-width="1" opacity="1" d="M 200.5 91 L 201.5 93 Q 198.7 93.7 200.5 91 Z " /><path fill="rgb(161,202,218)" stroke="rgb(161,202,218)" stroke-width="1" opacity="1" d="M 206.5 91 L 207.5 93 L 206.5 91 Z " /><path fill="rgb(161,202,218)" stroke="rgb(161,202,218)" stroke-width="1" opacity="1" d="M 136.5 109 L 135.5 111 L 136.5 109 Z " /><path fill="rgb(161,202,218)" stroke="rgb(161,202,218)" stroke-width="1" opacity="1" d="M 178.5 112 L 180.5 115 Q 178.7 111.9 177 113.5 L 178.5 112 Z " /><path fill="rgb(161,202,218)" stroke="rgb(161,202,218)" stroke-width="1" opacity="1" d="M 254.5 112 L 256.5 115 Q 254.8 111.9 253 113.5 L 254.5 112 Z " /><path fill="rgb(161,202,218)" stroke="rgb(161,202,218)" stroke-width="1" opacity="1" d="M 311.5 112 L 310.5 114 L 311.5 112 Z " /><path fill="rgb(161,202,218)" stroke="rgb(161,202,218)" stroke-width="1" opacity="1" d="M 114.5 113 Q 117.5 114.5 114.5 116 L 114.5 113 Z " /><path fill="rgb(161,202,218)" stroke="rgb(161,202,218)" stroke-width="1" opacity="1" d="M 149.5 113 Q 151.3 116.1 153 114.5 L 151.5 117 L 149.5 113 Z " /><path fill="rgb(161,202,218)" stroke="rgb(161,202,218)" stroke-width="1" opacity="1" d="M 296.5 113 Q 299.3 112.4 298 118.5 L 297 118.5 L 296.5 113 Z " /><path fill="rgb(161,202,218)" stroke="rgb(161,202,218)" stroke-width="1" opacity="1" d="M 184.5 114 L 185 116.5 L 184 116.5 L 184.5 114 Z " /><path fill="rgb(161,202,218)" stroke="rgb(161,202,218)" stroke-width="1" opacity="1" d="M 176.5 116 L 175.5 118 L 176.5 116 Z " /><path fill="rgb(161,202,218)" stroke="rgb(161,202,218)" stroke-width="1" opacity="1" d="M 197.5 116 L 196.5 118 L 197.5 116 Z " /><path fill="rgb(161,202,218)" stroke="rgb(161,202,218)" stroke-width="1" opacity="1" d="M 252.5 116 L 251.5 118 L 252.5 116 Z " /><path fill="rgb(161,202,218)" stroke="rgb(161,202,218)" stroke-width="1" opacity="1" d="M 256.5 116 L 254.5 119 L 256.5 116 Z " /><path fill="rgb(161,202,218)" stroke="rgb(161,202,218)" stroke-width="1" opacity="1" d="M 309.5 116 L 308.5 118 L 309.5 116 Z " /><path fill="rgb(161,202,218)" stroke="rgb(161,202,218)" stroke-width="1" opacity="1" d="M 179.5 117 L 178.5 119 L 179.5 117 Z " /><path fill="rgb(160,212,233)" stroke="rgb(160,212,233)" stroke-width="1" opacity="1" d="M 90.5 8 L 91.5 10 L 90.5 8 Z " /><path fill="rgb(160,212,233)" stroke="rgb(160,212,233)" stroke-width="1" opacity="1" d="M 79.5 9 L 78.5 11 L 79.5 9 Z " /><path fill="rgb(160,212,233)" stroke="rgb(160,212,233)" stroke-width="1" opacity="1" d="M 74.5 14 L 72.5 17 L 74.5 14 Z " /><path fill="rgb(160,212,233)" stroke="rgb(160,212,233)" stroke-width="1" opacity="1" d="M 98.5 16 L 100 19 L 98 18.5 L 98.5 16 Z " /><path fill="rgb(160,212,233)" stroke="rgb(160,212,233)" stroke-width="1" opacity="1" d="M 70.5 22 L 73 22.5 L 70.5 23 L 70.5 22 Z " /><path fill="rgb(160,212,233)" stroke="rgb(160,212,233)" stroke-width="1" opacity="1" d="M 59.5 35 L 60 37.5 L 59 37.5 L 59.5 35 Z " /><path fill="rgb(160,212,233)" stroke="rgb(160,212,233)" stroke-width="1" opacity="1" d="M 103.5 36 L 130 36.5 L 103.5 37 L 103.5 36 Z " /><path fill="rgb(160,212,233)" stroke="rgb(160,212,233)" stroke-width="1" opacity="1" d="M 138.5 40 L 141.5 44 L 138.5 40 Z " /><path fill="rgb(160,212,233)" stroke="rgb(160,212,233)" stroke-width="1" opacity="1" d="M 142.5 45 L 143.5 47 L 142.5 45 Z " /><path fill="rgb(160,212,233)" stroke="rgb(160,212,233)" stroke-width="1" opacity="1" d="M 146.5 57 L 147 64.5 L 146 64.5 L 146.5 57 Z " /><path fill="rgb(160,212,233)" stroke="rgb(160,212,233)" stroke-width="1" opacity="1" d="M 57.5 66 L 56.5 68 L 57.5 66 Z " /><path fill="rgb(160,212,233)" stroke="rgb(160,212,233)" stroke-width="1" opacity="1" d="M 44.5 72 L 43.5 74 L 44.5 72 Z " /><path fill="rgb(160,212,233)" stroke="rgb(160,212,233)" stroke-width="1" opacity="1" d="M 73.5 72 L 74 116.5 L 73 116.5 L 73.5 72 Z " /><path fill="rgb(160,212,233)" stroke="rgb(160,212,233)" stroke-width="1" opacity="1" d="M 96.5 72 L 97 116.5 L 96 116.5 L 96.5 72 Z " /><path fill="rgb(160,212,233)" stroke="rgb(160,212,233)" stroke-width="1" opacity="1" d="M 42.5 75 L 41.5 77 L 42.5 75 Z " /><path fill="rgb(160,212,233)" stroke="rgb(160,212,233)" stroke-width="1" opacity="1" d="M 137.5 75 L 136.5 77 L 137.5 75 Z " /><path fill="rgb(160,212,233)" stroke="rgb(160,212,233)" stroke-width="1" opacity="1" d="M 140.5 78 L 141.5 80 L 140.5 78 Z " /><path fill="rgb(160,212,233)" stroke="rgb(160,212,233)" stroke-width="1" opacity="1" d="M 39.5 79 L 38.5 81 L 39.5 79 Z " /><path fill="rgb(160,212,233)" stroke="rgb(160,212,233)" stroke-width="1" opacity="1" d="M 47.5 81 L 46.5 83 L 47.5 81 Z " /><path fill="rgb(160,212,233)" stroke="rgb(160,212,233)" stroke-width="1" opacity="1" d="M 142.5 81 L 143.5 83 L 142.5 81 Z " /><path fill="rgb(160,212,233)" stroke="rgb(160,212,233)" stroke-width="1" opacity="1" d="M 35.5 84 L 33.5 87 L 35.5 84 Z " /><path fill="rgb(160,212,233)" stroke="rgb(160,212,233)" stroke-width="1" opacity="1" d="M 144.5 84 L 145.5 86 L 144.5 84 Z " /><path fill="rgb(160,212,233)" stroke="rgb(160,212,233)" stroke-width="1" opacity="1" d="M 44.5 85 L 42.5 88 L 44.5 85 Z " /><path fill="rgb(160,212,233)" stroke="rgb(160,212,233)" stroke-width="1" opacity="1" d="M 341.5 89 L 342 91.5 L 341 91.5 L 341.5 89 Z " /><path fill="rgb(160,212,233)" stroke="rgb(160,212,233)" stroke-width="1" opacity="1" d="M 134.5 90 Q 137.9 89.1 136 94.5 L 134 95.5 L 135 91.5 L 134.5 90 Z " /><path fill="rgb(160,212,233)" stroke="rgb(160,212,233)" stroke-width="1" opacity="1" d="M 38.5 92 L 34.5 97 L 38.5 92 Z " /><path fill="rgb(160,212,233)" stroke="rgb(160,212,233)" stroke-width="1" opacity="1" d="M 23.5 96 L 21.5 99 L 23.5 96 Z " /><path fill="rgb(160,212,233)" stroke="rgb(160,212,233)" stroke-width="1" opacity="1" d="M 136.5 96 L 138 98.5 L 137 98.5 L 136.5 97 L 135 97.5 L 136.5 96 Z " /><path fill="rgb(160,212,233)" stroke="rgb(160,212,233)" stroke-width="1" opacity="1" d="M 341.5 97 L 342 101.5 L 341 101.5 L 341.5 97 Z " /><path fill="rgb(160,212,233)" stroke="rgb(160,212,233)" stroke-width="1" opacity="1" d="M 29.5 100 L 27.5 103 L 29.5 100 Z " /><path fill="rgb(160,212,233)" stroke="rgb(160,212,233)" stroke-width="1" opacity="1" d="M 17.5 101 L 16.5 103 L 17.5 101 Z " /><path fill="rgb(160,212,233)" stroke="rgb(160,212,233)" stroke-width="1" opacity="1" d="M 138.5 102 L 142 102.5 L 138.5 103 L 138.5 102 Z " /><path fill="rgb(160,212,233)" stroke="rgb(160,212,233)" stroke-width="1" opacity="1" d="M 13.5 104 L 12.5 106 L 13.5 104 Z " /><path fill="rgb(160,212,233)" stroke="rgb(160,212,233)" stroke-width="1" opacity="1" d="M 24.5 104 L 23.5 106 L 24.5 104 Z " /><path fill="rgb(160,212,233)" stroke="rgb(160,212,233)" stroke-width="1" opacity="1" d="M 341.5 106 L 342 128.5 L 341 128.5 L 341.5 106 Z " /><path fill="rgb(160,212,233)" stroke="rgb(160,212,233)" stroke-width="1" opacity="1" d="M 9.5 107 L 8.5 109 L 9.5 107 Z " /><path fill="rgb(160,212,233)" stroke="rgb(160,212,233)" stroke-width="1" opacity="1" d="M 5.5 111 L 6 113 L 9 113.5 L 6.5 114 L 5.5 111 Z " /><path fill="rgb(160,212,233)" stroke="rgb(160,212,233)" stroke-width="1" opacity="1" d="M 48.5 131 L 69 131.5 L 48.5 132 L 48.5 131 Z " /><path fill="rgb(160,212,233)" stroke="rgb(160,212,233)" stroke-width="1" opacity="1" d="M 101.5 131 L 169 131.5 L 101.5 132 L 101.5 131 Z " /><path fill="rgb(160,212,233)" stroke="rgb(160,212,233)" stroke-width="1" opacity="1" d="M 173.5 131 L 238 131.5 L 173.5 132 L 173.5 131 Z " /><path fill="rgb(160,212,233)" stroke="rgb(160,212,233)" stroke-width="1" opacity="1" d="M 242.5 131 L 308 131.5 L 242.5 132 L 242.5 131 Z " /><path fill="rgb(160,212,233)" stroke="rgb(160,212,233)" stroke-width="1" opacity="1" d="M 312.5 131 L 322 131.5 L 312.5 132 L 312.5 131 Z " /><path fill="rgb(160,212,233)" stroke="rgb(160,212,233)" stroke-width="1" opacity="1" d="M 337.5 141 L 336.5 143 L 337.5 141 Z " /></svg>